<svg version="1.0" xmlns="http://www.w3.org/2000/svg" height="32" width="32"><path d=" M 20.75,30.779505359047825 C 22.7729522899051,29.793271455875246 23.0,28.9714991884781 23.0,22.530845137074067 C 23.0,13.494222247223176 21.294510916614204,4.024446026804485 19.304254526632704,1.75 C 17.824370318265366,0.10034863729438959 18.1003067338994,0.0 24.845012437887913,0.0 L 32.0,0.0 L 32.0,16.0 L 32.0,32.0 L 25.25,31.93231971879275 C 19.652151063738174,31.876191720250247 18.884050354579394,31.679418936417246 20.75,30.779505359047825 M 7.722217486808582,26.212575018394517 C 6.7875,26.015002178745952 6.041146991741892,24.986347547023684 6.0,23.92667583678947 C 6.0,21.6064912189412 6.647365998025217,21.504508855168076 8.651785714285715,23.50892857142857 C 10.518836359486096,25.375979216628952 10.08024991629306,26.690906543644235 7.75,26.71399602361983 M 14.38865027364914,25.57042308723664 C 13.753181458306459,23.9144178996048 15.538793374854368,21.0 17.188867061139387,21.0 C 18.56597580130092,21.0 17.71655963788494,26.274652790565863 16.25052593118633,26.756039144564554 C 15.563315193338816,26.981691440285726 14.72547114744708,26.448164214488166 14.36886979356164,25.57042308723664 M 8.0,13.480947971785085 C 8.0,12.3599697928653 7.344864688797197,12.126324439739696 5.52887147927393,12.5893560016597 C 3.4570707019214097,13.102098616077779 2.999999999999999,12.850900023619126 2.999999999999999,11.215396834058945 C 2.999999999999999,8.91142737149148 4.912999775813875,7.902982286093331 7.834373292732512,8.666938622158717 C 10.14460701271806,9.271078311230877 11.205720149603287,11.300326947116947 10.361626399476958,13.5 C 9.613191501181326,15.45039008092618 8.0,15.43737592678081 8.02860791093466,13.480947971785085 M 15.31683406150845,10.565539356046097 C 15.428816858318555,8.391146010285912 16.010405940216266,7.007225468310406 16.813358484088134,7.00448404321558 C 17.688376301147464,7.001496574254415 18.022131838831562,8.059002411811235 17.813358484088134,10.17298828705454 C 17.364580215710557,14.717202857119185 15.084557003513249,15.075711486627721 15.31683406150845,10.565539356046097 M 0.00651347533059701,1.0 C 0.0,0.4204133542295323 2.837790141049343,0.049741117057126166 6.75,0.11831478842598586 C 11.965733713305026,0.20973677817057337 12.81810387258001,0.41014268862917125 10.5,0.9999999999999999 C 6.02458883885123,2.138798837282515 0.0,2.1387988372825153 0.0,1.0 Z" /></svg>