<svg version="1.0" xmlns="http://www.w3.org/2000/svg" height="32" width="32"><path d=" M 0.07894736842105259,30.416666666666668 C 0.12693129003893974,29.251723680721295 0.3638876676576086,29.014767303102627 0.6831140350877193,29.8125 C 0.9719846491228072,30.534375 0.9364583333333335,31.396875 0.6041666666666667,31.729166666666668 C 0.271875,32.061458333333334 0.035526315789473656,31.470833333333335 0.07894736842105259,30.416666666666668 M 5.0,30.940983005625053 C 5.0,30.358523658718834 5.45,30.160081306187557 6.0,30.5 C 6.55,30.528920344614995 7.0,31.316476341281167 7.0,31.559016994374947 C 7.0,31.801557647468726 6.55,32.0 6.0,31.985746339176753 C 5.45,32.0 5.0,31.533022787539558 5.009968854214462,30.940983005625053 M 13.5762272517936,27.320487572917873 C 14.221572739376002,23.03677539294243 14.130683727038457,22.739751034169945 12.38750015135517,23.455499482533675 C 9.192022480847601,24.767557613617328 4.128227500229819,25.794894166896466 3.576415026035847,25.221244567787913 C 2.5931476467993706,24.259814313466087 6.493919641610747,18.81837797591072 9.189295706298122,17.37952072275725 C 10.668408344762089,16.642274342201507 12.580908344762088,15.008724649738005 13.43929570629812,13.783205020640025 C 15.500604661666394,10.840274241791144 15.447857963345745,4.15235882225803 13.345012437887913,1.8287406715840646 C 11.766487726184636,0.08449049866537317 11.885315876921918,-1.6414057772179203e-16 15.91696875978203,-3.552713678800501e-15 L 20.143912643788237,-7.105427357601002e-15 L 19.48243118902567,5.7499999999999964 C 19.03928957965563,9.910028340232891 19.15341661266716,11.085224784408581 19.915718778980963,10.0 C 20.685290248246606,8.90442652700398 20.96982150168283,11.061368004358545 20.971032542190493,18.0 C 20.97328162759523,30.886089153451014 20.60338868953776,32.0 16.322095736477443,32.0 L 12.877454200876862,32.0 L 13.5762272517936,27.34024743701606 M 28.0,16.0 C 28.0,0.6666666666666643 28.083333333333332,0.0 30.0,0.0 C 31.916666666666668,0.0 32.0,0.6666666666666643 32.0,16.0 C 32.0,31.333333333333336 31.916666666666668,32.0 30.0,32.0 C 28.083333333333332,32.0 28.0,31.333333333333336 28.0,16.0 M -5.782248703620044e-16,15.864816241512003 C -1.1109621639917646e-15,9.318080836058398 0.10834025062163555,8.987614425547225 1.9342585459106614,9.968090673856784 C 5.179840446440652,11.70179896151826 5.949547735725497,11.1576856649521 5.720098264735428,7.288570663021017 C 5.551685900968186,4.4487000790931175 5.910954292634033,3.492157193286663 7.249999999999999,3.215246499810487 C 8.717186097621042,2.9118367524688233 8.999999999999998,3.6030615310764382 8.999999999999996,7.492417290878808 C 8.999999999999996,12.955390052032001 8.268810351787526,14.531189648212477 3.539444872453601,19.2605551275464 L -1.387778780781445e-17,22.8 L -5.782248703620044e-16,15.864816241512003 M 0.0,1.5 C 0.0,0.6749999999999998 0.4358768416475798,9.992007221626408e-17 0.9686152036612884,2.220446049250313e-16 C 1.501353565674997,3.4416913763379854e-16 1.6782086037920485,0.6750000000000003 1.3616263994769584,1.5000000000000002 C 0.6245961488491089,3.4206700455051213 0.0,3.420670045505121 0.0,1.5 Z" /></svg>