<svg version="1.0" xmlns="http://www.w3.org/2000/svg" height="32" width="32"><path d=" M 26.26903188937033,31.326402581572292 C 27.24199942852401,30.98965342794322 28.56339598214101,31.070140160385197 29.26903188937033,31.3216896516493 C 29.924219426536943,31.667014705432496 29.15,31.807817287715466 27.5,31.811009344222708 C 25.83123695298724,31.784671590973932 25.311921168007295,31.560552690168958 26.26903188937033,31.301603527588693 M 3.8698098467763167,20.08547263024148 C -0.11855001049386038,16.03529614335229 0.3530257621417139,9.740112604599659 5.282102514130923,2.6966471921737067 C 7.852473803066006,-1.0285320618494218 13.002232075773444,-1.083914952835015 15.927419850967112,2.634858691801279 C 18.166569753870323,5.347191775898322 18.722448392990927,9.006681522558422 16.9967759571478,9.014950087180791 C 16.411997905505242,9.000000000000002 16.398297732037005,9.832536874713865 16.936312323508478,11.27143033905652 C 18.025064918114857,14.221963136231016 17.172072009720587,18.96405370149512 15.161165132168717,21.20052938937325 C 12.759301783362737,24.090346070488987 7.435340399946467,23.498751186262595 3.996079899538851,20.034273676151177 M 12.697798123616968,17.60627407273635 C 12.933502060630092,16.796118105436047 12.6910359472725,15.135353922758702 11.943199419897127,14.058452466997938 C 9.747335197854142,9.835574576040207 4.594951737518532,13.023915650494247 6.355986663811144,17.558413266798183 C 7.112551670916489,19.38541492853613 11.893512626715621,19.43476760214963 12.621095780422067,17.62800381659472 M 13.182564102429176,8.379392283102472 C 14.134739430330601,7.522867983038901 11.810306817419475,3.999999999999999 10.306906873790146,3.906245381462097 C 9.62128877070931,3.989355349795372 8.5332205561925,4.841550924857658 8.071516212318059,5.927384340358261 C 7.242795501109603,7.473138689290539 7.365527701445724,7.926030355071665 8.827891510663573,8.281868292913542 C 11.494025474416931,9.027907273058235 12.600567379690558,8.999909967803694 13.219330135081922,7.8831182652963045 M 23.65670521685079,14.89722442766145 L 21.821484613463944,8.686134130357498 L 24.40765634301575,6.152906230269499 C 26.54732858592214,3.9208554570880785 27.19622729505987,3.7781488584637333 29.478735591677765,4.819569326375355 C 31.979315217261764,5.8619180460064975 32.047584675751814,6.291377202040769 31.7938391094049,13.233071682937993 C 31.56266778604115,20.581571844628208 31.499934791335185,20.507664326321716 28.5,20.84693821167324 C 25.563938791333452,21.081870886149705 25.388412988606724,20.94553107026015 23.640511556954458,14.920383640923873 M 29.043973826797117,12.0 C 29.091876828817064,10.367368146270424 28.56657023456715,9.030739381798163 27.97297285102526,9.0 C 26.88771458759199,9.0 26.619809807929716,13.29449947661921 27.71092994008123,14.261435914302067 C 28.796435850723036,15.373392082573657 28.989792626291678,15.050143988703638 29.0,11.970304348841369 Z" /></svg>