<svg version="1.0" xmlns="http://www.w3.org/2000/svg" height="32" width="32"><path d=" M 26.26903188937033,31.25124794174211 C 27.223158679350046,31.05346586846082 28.586306525899026,31.070140160385197 29.26903188937033,31.31129989477629 C 29.94606435021665,31.671299936606538 29.156584010848842,31.82543097123352 27.512996873192698,31.81938077900978 C 25.82313757448946,31.776150531493606 25.296064350216646,31.57152772560749 26.26903188937033,31.30700927931489 M 3.923076923076923,20.049415038579024 C -0.11855001049386038,16.03529614335229 0.3530257621417139,9.740112604599659 5.238218333041148,2.721941017237854 C 7.852473803066006,-1.0285320618494218 13.002232075773444,-1.083914952835015 15.927419850967112,2.6477597005528293 C 18.082771099464065,5.380077225339564 18.710872737185998,9.016385609661166 17.024750847063704,9.011458138240496 C 16.539661342782697,8.979988829092363 16.38199961210077,9.874535798536005 16.911283866484567,11.288907265092229 C 17.99584421794358,14.196125052989474 17.20572053737747,18.95399223797106 15.182230326534592,21.251178551416146 C 12.759301783362737,24.004084673948753 7.411884235660473,23.580854819231863 3.8977542720361638,20.076923076923077 M 12.608388195399748,17.578140713184546 C 12.908478426897025,16.796118105436047 12.633730356132979,15.193810125987177 11.950544841391617,14.044120391194614 C 9.747977235320885,9.829634080318467 4.642348189135219,13.049031280394976 6.26880167697927,17.57850141696778 C 7.14583148943206,19.419561762704273 11.908177866110092,19.398619348377046 12.584736094338579,17.587764134204697 M 13.237087368869226,8.37199764434729 C 14.143974184556555,7.542117891560902 11.763148301180356,3.9754592273058926 10.300843044146175,3.9815075242406084 C 9.68103972015882,3.999999999999999 8.606190359080264,4.84048451920308 8.073781657838289,5.927384340358261 C 7.336974635874598,7.434585223499429 7.394934988806782,7.940731138189586 8.77160252302694,8.257786016673762 C 11.494025474416931,8.951877878247837 12.618657481830443,9.011961134655238 13.246470760537903,8.895664967274485 M 23.701593230278412,14.874311060769454 L 21.853480882537095,8.692628436450164 L 24.41877101428199,6.166956457732536 C 26.59414211904067,3.937737698698574 27.2176739724286,3.7509431707643706 29.453765862981598,4.81753363800603 C 31.982573341927534,5.975270917214754 32.083518635635734,6.291377202040769 31.7938391094049,13.215377991321379 C 31.500006386952,20.457744238887756 31.499934791335185,20.50000630336984 28.5,20.803116629578746 C 25.591569275182888,21.100758274463086 25.427060679594586,20.830130964674417 23.694189763273897,14.928587419969316 M 29.019629673257032,12.0 C 29.0,10.394987546849727 28.55,9.020756269139394 27.985449858637722,9.018300094512796 C 26.869682279946616,8.993390409115278 26.701613619452527,13.28647647459638 27.70920456145081,14.353957929704519 C 28.796435850723036,15.440763406149811 28.967162628857313,15.106865256155011 29.024639014317913,12.019470352599615 Z" /></svg>