<svg version="1.0" xmlns="http://www.w3.org/2000/svg" height="32" width="32"><path d=" M 8.881784197001621e-15.706858158780118,19.799999999999976 C 1.5985579455989524e-15,10.04224184720563 0.250229697459599,7.849388232337516 1.2500000000000009,8.845796536489331 C 2.027258947733679,9.620441740522926 2.6890964209065285,14.235167478222419 3.0,21.047840645987776 C 3.383931800307427,31.00670253276789 3.340691355386988,29.38023457205059 1.75,32.00204410949843 C 0.1790734486064709,32.00020916899269 9.088524148203067e-17,30.751602244000598 8.881784197001621e-16.253213068052922,19.799999999999976 M 12.451157629236874,29.352797398105505 C 7.454354871159881,23.961157995237706 6.968274794939706,14.310643273642295 11.364899388408986,7.786492467278643 C 14.03280434179737,3.827588566589716 18.180025517579587,2.07459219127563 20.44025342949258,3.9504147505624783 C 22.27692424637673,5.474716142531012 22.50343972091685,10.096560279083171 20.823793604317444,11.776206395682555 C 19.317676116249118,12.59150814186708 16.882323254741348,11.470235618958142 17.66642973789548,9.426886877983758 C 17.967581066655743,9.30307748527163 20.57368953165954,8.000000000000004 17.46723140279971,6.360016194099335 C 16.169488371747097,8.000000000000004 15.977306216005957,11.416447724074605 14.03180337187046,13.576807149917334 C 14.005458563931391,15.297162013983648 14.560513485794797,15.581697723582964 16.854893547538055,15.23460489609209 C 19.059774170009746,14.910997132943747 20.19819301863355,13.248899365397811 21.854893547538055,17.54265643797605 C 24.916407778285915,21.434741086535215 24.673912559708455,26.29417502301918 20.095035925617573,27.320683430468126 C 17.76977489950094,32.696052806949155 15.524368391897474,32.668846688723306 12.451157629236874,29.352797398105505 M 19.83749212889255,22.259842957664723 C 20.19556283032648,21.581261347580934 18.504736893762562,19.869083873372567 16.43922553044222,20.661694952691143 C 14.69367457693001,21.33152570251805 14.013780664340912,24.613780664340908 15.344858722277465,27.537822450544382 C 17.090102692818732,27.690102692818733 19.466455626377915,26.715795561956682 19.83749212889255,24.037677784688537 M 30.60698880418433,25.418212531764212 C 29.62601916187076,22.220930458459303 29.94208450160945,5.63700750107936 31.0,1.0413882951722817 C 32.65778590727282,2.986289996821842 31.9743387503467,6.471368307378377 31.984687225482936,14.75 C 31.993109251467324,20.101615152705662 31.82314496188295,27.0 31.60698880418433,26.750717723537225 C 31.39083264648571,27.0 30.94083264648571,26.288195639293896 30.60698880418433,25.418212531764212 Z" /></svg>