<svg version="1.0" xmlns="http://www.w3.org/2000/svg" height="32" width="32"><path d=" M 2.7627576780282084,30.25 C -1.588319639261142,25.3286585790011 0.4830392281923297,7.907445085692976 5.6529648887562125,5.941842852951693 C 7.015443827232273,5.42382928382826 8.845648877770952,4.999999999999997 9.720087223286612,4.999999999999998 C 11.14953903624843,5.0 11.14296980897069,5.184538796161707 9.654987562112087,6.828740671584065 C 8.612190306234828,7.981018669133054 8.0,10.385409542891704 8.0,13.328740671584065 C 8.0,17.78832530596503 8.128043889620233,18.0 10.825685973290515,17.603509796940557 C 16.905102141863,18.0 20.190353237569536,25.88146525055309 15.811438553367863,29.961044852580464 C 12.944850809939767,32.63167758440839 5.023543104885009,32.80709015350534 2.7627576780282084,30.25 M 11.408838072068235,26.63424272667328 C 12.041209984969704,23.263410631498655 11.393949461939737,20.0 10.093011195815667,20.0 C 8.467187633602787,20.0 6.999999999999999,22.624768461960844 7.0,25.533333333333335 C 7.0,31.061950495453583 10.418075475613938,31.915461406205402 11.408838072068235,26.63424272667328 M 11.512772739472062,12.020666726595245 C 11.179879052369255,11.48203342622263 11.399131319606827,10.12273339925477 12.0,8.999999999999998 C 12.600868680393173,7.877266600745228 12.839338241871362,6.549060809030495 12.529932358840421,6.0484315739672585 C 11.597247279951963,4.5393154155258575 13.980566588241771,3.738982269846422 15.543804876499912,5.036354818517289 C 17.502846314872755,6.662214806047173 17.418112115803442,11.62557771857449 15.41821253176421,12.39301119581567 C 13.196691300456104,13.24548887865239 12.211716456866696,13.151581417562964 11.512772739472062,12.020666726595245 M 13.0,1.0 C 13.0,0.44999999999999996 13.45,0.0 14.0,0.0 C 14.55,0.0 15.0,0.44999999999999996 15.0,1.0 C 15.0,1.55 14.55,2.0 14.0,2.0 C 13.45,2.0 13.0,1.55 13.0,1.0 Z" /></svg>