<svg version="1.0" xmlns="http://www.w3.org/2000/svg" height="32" width="32"><path d=" M 0.007824306872189522,26.24465586329722 C 0.07362988223420222,20.861633577569705 0.21426758352235958,20.6545561489059 1.3864771146817056,23.028791523139184 C 2.163490836728414,24.375 3.0771916794199785,27.019918747390864 3.4442484891022462,28.768655035861645 C 4.072687867710919,31.598466210843164 3.9150852783618952,32.03922663065303 2.0501020230360814,31.97795933826573 C 0.19378009109022523,31.987744730697784 -0.015506544330024553,31.419404438684193 0.04450929246730322,26.260510392489394 M 13.732047469143323,28.96042220103883 C 10.379913522911027,26.36296992816238 5.121384847067075,18.12386738011139 5.453268400688466,15.028757068318338 C 4.430156131714286,9.431355792457207 5.087564667821234,6.996510952410217 8.360653953029804,3.5836774434283916 C 13.738652878700567,-2.1232671972619492 20.239112560405285,-0.5728000108952758 21.664165425687564,6.729383776288662 C 21.978056157798832,8.54014234489162 23.11177252584742,11.730924627203658 24.136061311842127,13.704620918593852 C 28.32972948403047,21.98661228273187 24.871011167748254,30.894811687383246 17.425457746548293,31.001524174725724 C 16.738270339923393,30.9938553925184 15.13643376037795,30.154044518074386 13.826084066594579,28.999259761696464 M 18.952186228101784,21.542956193030484 C 18.98419633184389,19.413323456055256 17.884228049063207,16.983992123598853 16.91577753449012,17.04617400343994 C 15.859645147997085,17.02807353792642 15.660406175101407,21.288572908318613 16.66378208244168,22.333333333333336 C 17.778287135406245,23.474254288592338 19.033968950270875,23.051243301926327 19.044167148496005,21.582693327613043 M 14.037973321207343,8.429745137918735 C 14.0,7.563047079227735 13.525871709841503,7.161403046329862 12.979539213057196,7.504002258188204 C 12.45,7.839918693812442 11.98926833696263,8.461679238068816 12.0,9.059999949239545 C 12.0,9.59410286679342 12.45,10.0 12.950823125824861,9.979131442529296 C 13.56924432893487,9.973296642007234 14.006557420173426,9.362180540846358 14.000828137049046,8.440983005625053 Z" /></svg>