<svg version="1.0" xmlns="http://www.w3.org/2000/svg" height="32" width="32"><path d=" M 0.05250537474169013,26.253033027374773 C 0.06051571808500657,20.88283398835948 0.20763457741603983,20.6739742554303 1.3742069532213979,23.04595433960154 C 2.1667900665409747,24.3910253069761 3.133674810566456,26.957544564062097 3.3215527231159414,28.767252829878352 C 4.067720013055107,31.581971464859393 3.876972539267512,31.995016217689873 2.0585197043006422,31.99283981716936 C 0.20996912996336414,32.0 -0.05491579551063323,31.419404438684193 0.1553677806069111,26.25 M 13.910857416413668,28.93624323640691 C 10.445925136909743,26.373734462929075 5.190851672825006,18.062157397526374 4.275809186570294,15.011565110293576 C 4.386048492618,9.41270647614178 5.0754967126671975,6.988283816219051 8.294606453872397,3.4145203784758666 C 13.738652878700567,-2.1232671972619492 20.239112560405285,-0.5728000108952758 21.640202575995268,6.74348799295663 C 22.049984228794695,8.54014234489162 23.082619611450276,11.639140912995797 24.233757233100096,13.723144982813569 C 28.41310707177327,22.04958386204129 24.947166156003405,30.894811687383246 17.371778059768797,30.986345316707556 C 16.729732140128046,31.002574161579474 15.099460563330393,30.20561269769177 13.704622221988124,29.04636951908759 M 18.96874059433596,21.58178746823579 C 18.9294162418071,19.39463355498811 17.85323715993712,17.00889405035065 16.986149368986318,17.032920230961068 C 15.970935977455857,17.049353028070747 15.764590563567822,21.38948037248834 16.688770872270926,22.345768034371517 C 17.794972587760586,23.493996155669205 19.060273602565662,23.02237052602707 19.080568413670758,21.66874992958375 M 14.007999477417199,8.440983005625053 C 13.978704285080454,7.500396134594688 13.55,7.166885412604957 12.8392459176316,7.473728933054368 C 12.45,7.811392174374309 11.97948889713984,8.541476341281168 11.853667840552152,9.050821808238169 C 12.0,9.576557647468727 12.45,10.026178517120682 13.028332479963336,10.038886866529438 C 13.673051558859163,10.0 14.026633615687404,9.317563409788708 14.030516984211186,8.457395090496055 Z" /></svg>