<svg version="1.0" xmlns="http://www.w3.org/2000/svg" height="32" width="32"><path d=" M 0.002373401871178354,28.5 C 0.0,26.022217795915772 0.4476879277321384,25.0 1.5328511725417,25.0 C 2.8334304733375997,25.0 2.976985623685776,23.74988323965892 2.4802266721304953,16.75 C 2.1582150520063976,12.2125 1.4684320243626323,8.350000000000001 0.9473754995887946,8.166666666666668 C 0.4263189748149572,7.983333333333335 -7.648203058528856e-16,6.529406746030046 -4.934324553889584e-15.970228459784153,4.935718694881579 C 5.20321591014177e-17,1.7325523152828572 0.42466075115078894,1.546271884574667 10.118837120199025,0.4970194934397423 C 14.984224612851364,-0.029587333805822347 15.807095696514473,0.1309778390687435 16.255383507619158,1.694431398063557 C 16.540123604590764,2.6874941291286008 17.099250171030803,4.292603270529591 17.49788698859702,5.261340601176869 C 18.052845986091775,6.60996038279665 17.84708387429262,6.878550984108328 16.619770003646572,6.407586462222726 C 14.763980687498004,5.695453283494579 13.464587026494213,8.162352865626712 14.404844319726653,10.612624094848085 C 14.87606435264819,11.840603816580435 15.345509992077156,11.958141605949828 16.372998288111198,11.105402059223064 C 17.473501481512127,10.192065529810204 17.821804140921756,11.139443405930779 18.261750110645455,16.24277796437498 C 18.558430990880225,19.68425008396874 18.678933387285863,23.85 18.529533213769096,25.5 C 18.38013304025233,27.15 18.199869814351967,29.2875 18.12894826732385,30.25 C 18.016395933299552,31.777485313531567 16.8556387553052,32.0 9.0,32.0 L 0.0,32.0 L 0.0,28.5 M 15.825710809763287,27.25 C 17.56879701046528,23.845832350584207 17.892416722685304,18.232919432298516 16.454968532020864,16.33605173040501 C 15.117153281499892,14.570660423577603 15.058304822717943,14.576969970298187 14.92584078118593,16.5 C 14.85006950178068,17.6 14.868781044016732,19.72899743963796 14.96742198615493,21.231105421417695 C 15.189834206431906,24.618007088023155 14.173167192884867,28.0 12.932612329442932,28.0 C 12.41967554824932,28.0 11.995047451253507,25.1875 11.988994336118907,21.75 C 11.975146745441775,13.88609986029655 11.009347483478933,7.876188948750842 9.872379899948758,8.578873559479325 C 9.392570954976941,8.875411795578135 9.0,11.14303398874989 9.0,13.618033988749891 C 9.0,16.551140646265058 8.628555139595324,17.888468440073343 7.933238257831697,17.45873897419183 C 7.34651929963913,17.03844607434693 6.961934609163575,15.382069068716172 7.078605612330463,13.649721979816885 C 7.406537787201112,8.780539980233204 7.096400662689021,7.0 5.920347063508013,6.999999999999998 C 5.196564827168516,6.999999999999997 4.941725167414789,10.460966228408793 5.147205619523346,17.5 C 5.4453149647244805,27.712172140779188 6.2477717112219455,30.20768733206763 7.845042803017611,25.889852418112874 C 8.61018359419267,23.821479905020855 8.659495094657863,23.831378518073727 10.33587157881699,26.389852418112874 C 12.314166509862924,29.409112110364866 14.541459445493919,29.75808419354317 15.825710809763287,27.25 M 0.07894736842105259,18.416666666666664 C 0.12693129003893977,17.251723680721295 0.3638876676576084,17.014767303102627 0.6831140350877193,17.8125 C 0.9719846491228072,18.534375 0.9364583333333335,19.396875 0.6041666666666667,19.729166666666664 C 0.271875,20.06145833333333 0.035526315789473656,19.47083333333333 0.07894736842105259,18.416666666666664 Z" /></svg>