<svg version="1.0" xmlns="http://www.w3.org/2000/svg" height="32" width="32"><path d=" M 0.06662197201685392,28.736155325847385 C 0.12236842105263171,26.9625 0.37738763989651747,26.175 0.704386374428892,27.004499427720344 C 1.0127824246179211,27.8035279798008 2.0478264320764836,29.2875 2.803307348217815,30.25 C 4.176608348557305,31.846905939195835 4.148657985081972,32.006602751244756 2.1286913526381634,32.0 C 0.3741918780018243,32.0 -0.0019810425278087816,31.435670244744237 0.07894736842105271,28.75 M 30.5206353378129,30.0 C 30.18458566621748,29.45 30.358523658718834,29.021941632035247 30.940983005625053,29.0 C 31.523442352531273,29.0 32.02653661938341,29.45 31.979227877492043,30.0 C 31.97961370629019,30.55 31.801557647468726,31.0 31.559016994374947,31.0 C 31.316476341281167,31.0 30.92712746802325,30.577056134814807 30.5,30.0 M 4.457518351988165,24.176727031908964 C 3.088651574877857,22.713082014993756 2.0061446074816,21.07849169763683 2.0136546832924447,20.510218294867038 C 2.033594632640464,17.634882026938175 3.422157536737074,15.11202753903501 5.567660329327945,13.969308126179184 C 6.887219896380404,13.257582442005807 8.239495016100557,11.820778524390105 8.560764205304569,10.770891695948176 C 9.426508071304822,7.982546259054436 14.933955161415028,5.00065221562453 19.303428804660648,4.970771237362396 C 23.134169472730477,4.99997315753723 29.999905231123012,9.193881123062697 29.99997050987339,11.562908795233998 C 30.00000701571653,12.926622888067731 25.281712779009627,17.353524450590758 22.25,18.90337078621672 C 21.0125,19.52622158811944 20.10214530489322,20.719160984721995 20.00670483167089,21.536304810551854 C 19.97091453285266,23.59570500466171 16.156817544149344,25.685749178695225 11.207518351988167,26.31486319835347 C 7.499660032065293,26.75070826133309 6.579876301828042,26.467379851920853 4.52727874441394,24.17075975697781 M 10.315741454089334,22.83665718435538 C 15.400446466704242,20.12852766499413 16.424106673586348,15.959347858707332 12.056703968649053,16.0 C 8.929569544536054,16.0 6.0,19.00182487428336 5.985785943304841,22.222506243405427 C 6.0,24.288064695812324 7.227230578357163,24.466691062807342 10.304515972377683,22.83665718435538 M 22.027493756594573,14.307964498213936 C 25.131783934331647,12.204239049032594 25.96599018831915,10.953286297040622 25.330161035978456,9.396322929022759 C 24.44315525440243,7.027882448494253 21.693529365220215,6.952164057636859 18.356884653142522,9.223844199245693 C 14.618149141782574,11.798204902162414 14.18224178606777,13.40881789667573 16.75,14.932906687325428 C 19.075412532673937,16.274329661229007 19.170176645352115,16.26334155943589 22.029380808211073,14.854174702016829 M 27.344496022571644,22.421159712318396 C 26.718934691040296,20.794967200163775 28.458841434340872,19.043379970116078 30.722973542835028,19.015312774517064 C 32.33912104260622,19.01380540454855 32.36865452384544,21.231345476154555 30.815335791231167,22.799999999999997 C 29.16538718104411,24.45785433415737 28.054870627225583,24.28552646064175 27.32747032090226,22.414924775388553 M 0.03596291905004784,8.764443332386602 C 0.0886803892393758,3.9641545627357173 3.8522590463250737,-0.2388355891148105 7.756002691254128,0.17524328482374507 L 10.817658435626786,0.4867756229348627 L 5.408829217813393,6.296625774965041 L 0.0,12.093251549930082 L 0.03596291905004784,8.79662577496504 M 28.5,1.0 C 28.160081306187557,0.44999999999999996 28.835081306187558,4.996003610813204e-17 30.0,1.1102230246251565e-16 C 31.164918693812442,1.7208456881689927e-16 31.839918693812443,0.4500000000000002 31.505556571419714,1.0249548419241439 C 31.160081306187557,1.5441485228437852 30.48508130618756,1.9708670416480092 30.0,2.0 C 29.51491869381244,2.017538571169127 28.88118382139573,1.5609230214397105 28.5,1.0 Z" /></svg>