<svg version="1.0" xmlns="http://www.w3.org/2000/svg" height="32" width="32"><path d=" M 0.07557675278299406,28.75 C 0.17235059715805273,26.980248897421298 0.40608793651895525,26.19224150277139 0.7260450521702058,27.0 C 1.0538202639116008,27.825 1.9979760181300834,29.2875 2.7854753742594744,30.238742142302886 C 4.193027820237664,31.846905939195835 4.121451811729204,32.0 2.139385818340157,32.0 C 0.3741918780018243,32.06051771851145 0.032441329216180814,31.433551177070697 0.05315154192203747,28.75 M 30.5,30.0 C 30.160081306187557,29.45 30.358523658718834,29.0 30.940983005625053,29.0 C 31.507980091083112,29.021734134931418 32.03562433849047,29.45 32.0,30.0 C 32.0,30.55 31.801557647468726,31.0 31.559016994374947,31.0 C 31.316476341281167,31.0 30.86549769947434,30.55 30.5,30.0 M 4.420016327818397,24.17075975697781 C 3.1058832583946745,22.713082014993756 2.0061446074816,21.09089607841362 2.0497759503823416,20.510218294867038 C 2.0806371139482254,17.634882026938175 3.422157536737074,15.11202753903501 5.619456848788683,14.01660049250301 C 6.887219896380404,13.212229524550859 8.24324014789185,11.820778524390105 8.533159542319607,10.770891695948176 C 9.46566141013022,7.9190222208516206 14.953598700397047,4.9843320771159725 19.303428804660648,4.986435006364893 C 23.134169472730477,4.99997315753723 30.025455323863277,9.188111543818577 29.99997050987339,11.562908795233998 C 29.97266517890915,12.878684148276315 25.27165374957994,17.353524450590758 22.30619329027696,18.969740172575726 C 21.038972806151552,19.54955093345271 20.0,20.719160984721995 20.0,21.531457232503872 C 19.999999999999996,23.59570500466171 16.134350049065844,25.685749178695225 11.207518351988167,26.32573101131349 C 7.487896634969223,26.738864354978652 6.56938190840655,26.467379851920853 4.478168392144847,24.144526650589196 M 10.300761260050395,22.83665718435538 C 15.456304966929517,20.12852766499413 16.451780724260008,16.0 12.029041075280867,15.964471740801129 C 8.921839515794744,16.00364128349755 6.0,19.02825562031208 6.0,22.222506243405427 C 6.0,24.299116335384422 7.255237378031801,24.500548321129177 10.315741454089334,22.877269506127526 M 21.96875231077374,14.287977028455828 C 25.165895885844705,12.143680316528986 25.939774122941312,10.95543723236964 25.330161035978456,9.418002577111286 C 24.428849250136675,7.0423069923861625 21.693529365220215,6.952164057636859 18.398952257794175,9.251103672182278 C 14.623567541645233,11.769278894507424 14.200052210325033,13.40881789667573 16.73419625268034,14.994174427421378 C 19.044059406452856,16.274329661229007 19.170176645352115,16.26334155943589 22.027493756594573,13.733429004550914 M 27.34778714914295,22.399075223028543 C 26.675091595941034,20.7788386351715 28.458841434340872,19.061151123567353 30.778356208994296,18.990346494286623 C 32.33912104260622,18.995845692752464 32.37646860556422,21.231345476154555 30.758278898722374,22.799999999999997 C 29.16538718104411,24.43461281895589 28.10062871035569,24.306565498935576 27.322897928733163,22.340429725961805 M 0.03596291905004784,8.816089092107243 C 0.0886803892393758,3.9641545627357173 3.8522590463250737,-0.2388355891148105 7.756002691254128,0.17524328482374507 L 10.807202022154218,0.47113382918573005 L 5.407036784601629,6.296625774965041 L 0.0,12.078307413817871 L 0.04183512206893403,8.79662577496504 M 28.5,1.0 C 28.160081306187557,0.44999999999999996 28.835081306187558,4.996003610813204e-17 30.0,1.1102230246251565e-16 C 31.164918693812442,1.7208456881689927e-16 31.839918693812443,0.4500000000000002 31.5,1.0 C 31.160081306187557,1.55 30.48508130618756,1.9888829537448451 30.0,2.0 C 29.51491869381244,2.0 28.814807083587887,1.55 28.512209092766543,1.0 Z" /></svg>