<svg version="1.0" xmlns="http://www.w3.org/2000/svg" height="32" width="32"><path d=" M 0.07894736842105271,28.75 C 0.12236842105263171,27.000529260118068 0.40608793651895525,26.175 0.7094351805684382,27.0 C 0.9999867635810926,27.825 1.9470005117788873,29.2875 2.8088848454285777,30.25 C 4.176608348557305,31.846905939195835 4.121451811729204,32.0 2.159949978915111,32.0 C 0.323258367119447,32.0 0.003967684176892375,31.46539989734849 0.07894736842105271,28.75 M 30.5,30.0 C 30.160081306187557,29.45 30.358523658718834,29.0 30.940983005625053,29.0 C 31.523442352531273,29.0 32.0,29.45 32.0,30.0 C 32.0,30.55 31.801557647468726,31.0 31.559016994374947,31.0 C 31.316476341281167,31.0 30.839918693812443,30.55 30.5,30.0 M 4.457518351988165,24.14298127863295 C 3.1058832583946745,22.713082014993756 2.018261015004738,21.06583835704391 2.0136546832924447,20.510218294867038 C 2.0730719293848883,17.634882026938175 3.422157536737074,15.11202753903501 5.567660329327945,13.937563745389012 C 6.887219896380404,13.257582442005807 8.244269748803722,11.820778524390105 8.572716150928288,10.764459009794098 C 9.437037737523205,7.957470312456282 14.993673792974128,5.00801313134276 19.303428804660648,5.003738060437554 C 23.16042771150354,4.99997315753723 30.055003380750083,9.210075291514567 29.99997050987339,11.562908795233998 C 30.00000701571653,12.878684148276315 25.281712779009627,17.341519950255112 22.25,18.9129973313687 C 21.0125,19.561472617235736 20.0,20.719160984721995 20.0,21.512130778633775 C 19.999999999999996,23.59570500466171 16.156817544149344,25.685749178695225 11.207518351988167,26.293760392847922 C 7.487896634969223,26.75070826133309 6.587064703400447,26.467379851920853 4.457518351988165,24.17075975697781 M 10.315741454089334,22.83665718435538 C 15.41034526579846,20.12852766499413 16.451780724260008,16.0 12.056703968649053,16.0 C 8.921839515794744,16.0 6.0,18.955203600944873 6.0,22.222506243405427 C 6.0,24.288064695812324 7.255237378031801,24.466691062807342 10.315741454089334,22.83665718435538 M 22.027493756594573,14.307964498213936 C 25.156113971108585,12.166923807747535 25.939774122941312,11.006628816644941 25.353229441757133,9.418002577111286 C 24.41298588580215,7.027882448494253 21.693529365220215,6.952164057636859 18.356884653142522,9.223844199245693 C 14.618149141782574,11.769278894507424 13.606049714846437,13.40881789667573 16.75,14.919901200528017 C 19.075412532673937,16.307522591683952 19.170176645352115,16.26334155943589 22.027493756594573,14.307964498213936 M 27.322897928733163,22.399075223028543 C 26.701154812980743,20.7788386351715 28.458841434340872,19.043379970116078 30.75,19.015312774517064 C 32.33912104260622,18.97650435672394 32.36865452384544,21.231345476154555 30.8,22.788984819997165 C 29.16538718104411,24.43461281895589 28.054870627225583,24.306565498935576 27.3357400560632,22.399075223028543 M 0.03596291905004784,8.79662577496504 C 0.0886803892393758,3.9641545627357173 3.8522590463250737,-0.2388355891148105 7.746125818844447,0.17524328482374507 L 10.8237484499966,0.5 L 5.414167926033285,6.296625774965041 L 0.0,12.093251549930082 L 0.012676289063010125,8.79662577496504 M 28.5,1.0 C 28.160081306187557,0.44999999999999996 28.835081306187558,4.996003610813204e-17 30.0,1.1102230246251565e-16 C 31.164918693812442,1.7208456881689927e-16 31.839918693812443,0.4500000000000002 31.5,1.0 C 31.160081306187557,1.55 30.48508130618756,2.0 30.0,1.9794072234327784 C 29.51491869381244,2.0 28.839918693812443,1.55 28.5,1.0 Z" /></svg>