<svg version="1.0" xmlns="http://www.w3.org/2000/svg" height="32" width="32"><path d=" M -2.4030823453008964e-16,27.569805660383018 L -4.806164690601793e-16,23.139611320766036 L 3.135811124212456,24.038950117928813 C 7.336115267383783,25.24358149597019 7.464714463792815,25.46386647650735 6.01328163053617,28.967935307429148 C 5.11265594762887,31.137303186099214 4.08443801416946,32.0 2.378679656440357,32.0 C 0.23172308077247994,32.0 -2.3410030976444844e-17,31.568425164768467 -2.4030823453008964e-16,27.569805660383018 M 11.072580149032884,29.365141308198716 C 9.57437273816456,27.46047922770473 9.0,25.27728875510124 9.0,21.487265262871247 C 9.000000000000002,18.603605718431844 8.288566154870347,14.541547048325096 7.419035899711879,12.460468218189579 C 5.557765235173749,8.005820488402822 6.235655373507814,2.528693093469948 8.777199943100324,1.4869533841534892 C 9.724739974395145,1.0985714180937565 12.809178806505251,0.6197674076155887 15.631508458900559,0.4229444719797826 C 20.669585327243126,0.0716002984370302 20.774278060386074,0.12139030193036504 21.38150845890056,3.1575422945027842 C 21.721678806505253,4.858394032526241 22.0,8.560503945052897 22.0,11.384453211228687 C 22.0,15.435899531666363 22.421858704807192,16.782361544019754 24.0,17.76792709483049 C 26.747781328065592,19.48394493578785 26.708064318031564,25.8301247027986 23.927419850967112,29.36514130819872 C 22.255239006377227,31.490974769783882 21.013533377337392,32.0 17.5,32.0 C 13.986466622662604,32.0 12.744760993622773,31.490974769783882 11.072580149032884,29.365141308198716 M 20.81279109416574,25.30158477857351 C 21.591488435894785,19.828602584155938 16.017624621559097,16.6724512005611 13.87568034593855,21.373506803317603 C 12.273623782439191,24.889637950842236 14.310095927162102,28.215108237850835 17.817258495333178,27.80993219401089 C 19.697309227901155,27.592733389212533 20.593588787605803,26.842222272100777 20.81279109416574,25.30158477857351 M 17.0,11.122444715442173 C 17.0,8.87034279839898 14.505719174401177,6.56941437270764 13.043804876499912,7.472927097450063 C 11.878466062518635,8.193146092899983 11.6371006187509,11.303767285417567 12.666666666666668,12.333333333333332 C 14.102349111968252,13.76901577863492 17.0,12.959308283494952 17.0,11.122444715442173 M 0.035435415729399025,10.25 C 0.06714911171215984,2.418997198502364 0.21067524050375175,1.7522810268928692 1.4019832452255283,3.90203015733886 C 2.13409507279723,5.223146743875233 2.6069947769571464,8.373146743875232 2.452871476692009,10.90203015733886 C 2.2987481764268716,13.430913570802488 2.1338016531536135,16.2875 2.0863236471958797,17.25 C 2.054552821180306,18.2125 1.55,19.0 1.0,19.0 C 0.40682396832537915,19.0 0.014415976446293673,15.440290277152933 0.035435415729399025,10.25 M 30.90042099754087,5.0 C 30.321318757412524,0.4993928642266381 30.505528888028994,-0.8278044453043261 31.562583604671172,0.2292502713378397 C 31.872004587240315,0.5386712539069803 31.979879738403085,2.7511712539069784 31.802306162810655,5.145916938004502 L 31.479445116278967,9.5 L 30.90042099754087,5.0 Z" /></svg>