<svg version="1.0" xmlns="http://www.w3.org/2000/svg" height="32" width="32"><path d=" M 0.07894736842105271,28.75 C 0.11220103320281219,26.9625 0.40608793651895525,26.175 0.7094351805684382,26.978540886202413 C 1.0127824246179211,27.849394222869794 1.9470005117788873,29.2875 2.7854753742594744,30.25 C 4.176608348557305,31.846905939195835 4.121451811729204,32.0 2.154987562112089,32.0 C 0.3741918780018243,32.0 0.013708415107427457,31.435670244744237 0.07894736842105271,28.75 M 30.5,30.0 C 30.160081306187557,29.45 30.358523658718834,29.0 30.940983005625053,29.01827224140148 C 31.523442352531273,29.0 32.00509661059442,29.45 32.0,30.0 C 32.0,30.55 31.801557647468726,31.0 31.559016994374947,31.024137799704672 C 31.316476341281167,31.0 30.839918693812443,30.55 30.5,30.0 M 4.457518351988165,24.17075975697781 C 3.1058832583946745,22.713082014993756 2.0061446074816,21.06583835704391 2.0136546832924447,20.510218294867038 C 2.052519358677299,17.634882026938175 3.422157536737074,15.11202753903501 5.567660329327945,13.925892223478135 C 6.887219896380404,13.257582442005807 8.259998615262313,11.820778524390105 8.572716150928288,10.770891695948176 C 9.420205877114153,7.957470312456282 14.950820615823714,5.00801313134276 19.303428804660648,5.003738060437554 C 23.134169472730477,4.979342018666758 29.999905231123012,9.210075291514567 29.99997050987339,11.562908795233998 C 30.018069347412084,12.878684148276315 25.281712779009627,17.353524450590758 22.25,18.93762351141154 C 21.0125,19.54955093345271 20.0,20.719160984721995 20.0,21.512130778633775 C 19.999999999999996,23.59570500466171 16.181891515171888,25.685749178695225 11.207518351988167,26.293760392847922 C 7.487896634969223,26.75070826133309 6.587064703400447,26.467379851920853 4.457518351988165,24.17075975697781 M 10.333914142506668,22.83665718435538 C 15.400446466704242,20.07562445384483 16.451780724260008,16.0 12.056703968649053,16.0 C 8.921839515794744,16.0 6.0,19.00182487428336 6.0,22.222506243405427 C 5.99186501304991,24.288064695812324 7.255237378031801,24.466691062807342 10.323454626264676,22.83665718435538 M 22.027493756594573,14.307964498213936 C 25.156113971108585,12.210335137716053 25.939774122941312,11.006628816644941 25.330161035978456,9.418002577111286 C 24.41298588580215,7.027882448494253 21.669555400002675,6.952164057636859 18.356884653142522,9.223844199245693 C 14.618149141782574,11.769278894507424 13.606049714846437,13.40881789667573 16.74128055865562,14.919901200528017 C 19.075412532673937,16.274329661229007 19.170176645352115,16.26334155943589 22.027493756594573,14.307964498213936 M 27.341072838722205,22.399075223028543 C 26.701154812980743,20.7788386351715 28.458841434340872,19.043379970116078 30.75,19.015312774517064 C 32.33912104260622,18.995845692752464 32.36865452384544,21.231345476154555 30.8,22.77190616346903 C 29.16538718104411,24.43461281895589 28.054870627225583,24.306565498935576 27.322897928733163,22.399075223028543 M 0.02350879432122706,8.79662577496504 C 0.0886803892393758,3.9641545627357173 3.8522590463250737,-0.2388355891148105 7.756002691254128,0.17524328482374507 L 10.817658435626786,0.5 L 5.372981882164394,6.296625774965041 L 0.0,12.114623894556694 L 0.03596291905004784,8.79662577496504 M 28.5,1.0 C 28.160081306187557,0.44999999999999996 28.835081306187558,4.996003610813204e-17 30.0,1.1102230246251565e-16 C 31.164918693812442,1.7208456881689927e-16 31.839918693812443,0.4500000000000002 31.5,1.0 C 31.160081306187557,1.55 30.511969588982925,2.0 30.0,2.0 C 29.51491869381244,2.0 28.839918693812443,1.55 28.5,1.0 Z" /></svg>