<svg version="1.0" xmlns="http://www.w3.org/2000/svg" height="32" width="32"><path d=" M 0.07894736842105271,28.776506831255283 C 0.12236842105263171,26.9625 0.40608793651895525,26.175 0.7094351805684382,27.0 C 1.0127824246179211,27.825 1.9470005117788873,29.2875 2.7854753742594744,30.220495763116002 C 4.176608348557305,31.846905939195835 4.172085301847925,32.0 2.18177566877343,32.0 C 0.3741918780018243,32.0 0.013708415107427457,31.435670244744237 0.050271427857016125,28.75 M 30.5,30.0 C 30.145723163164686,29.45 30.358523658718834,29.027506587561128 30.940983005625053,28.98947923833113 C 31.523442352531273,29.0 32.0,29.45 32.0,30.0 C 32.0,30.55 31.801557647468726,31.0 31.559016994374947,31.0 C 31.316476341281167,31.0 30.839918693812443,30.55 30.475286336047994,30.0 M 4.457518351988165,24.19890034094886 C 3.1058832583946745,22.713082014993756 2.0061446074816,21.06583835704391 2.0136546832924447,20.510218294867038 C 2.052519358677299,17.68686300574771 3.422157536737074,15.11202753903501 5.567660329327945,13.963789290649736 C 6.887219896380404,13.257582442005807 8.239495016100557,11.820778524390105 8.564005996147474,10.770891695948176 C 9.46566141013022,7.957470312456282 14.953598700397047,5.00801313134276 19.286259449540683,4.982716333269596 C 23.134169472730477,4.979276191554016 29.999905231123012,9.139060889611308 30.017287587820956,11.562908795233998 C 29.976787723661083,12.878684148276315 25.270809689265512,17.383337016736483 22.25,18.985049751267105 C 21.018179778540564,19.5996061659171 20.0,20.7260708037703 20.0,21.512130778633775 C 19.999999999999996,23.59570500466171 16.156817544149344,25.685749178695225 11.207518351988167,26.31982240586898 C 7.487896634969223,26.75070826133309 6.587064703400447,26.45189285803462 4.457518351988165,24.161038374878267 M 10.292600374182753,22.83665718435538 C 15.400446466704242,20.12852766499413 16.451780724260008,16.012861414837953 12.056703968649053,16.0 C 8.921839515794744,16.0 6.0,19.00182487428336 6.0,22.222506243405427 C 6.0,24.288064695812324 7.23377273996044,24.48786816140277 10.315741454089334,22.83665718435538 M 22.027493756594573,14.307964498213936 C 25.156113971108585,12.166923807747535 25.939774122941312,11.006628816644941 25.35362701112864,9.418002577111286 C 24.41298588580215,7.027882448494253 21.693529365220215,6.980852324402564 18.356884653142522,9.223844199245693 C 14.638931724472831,11.769278894507424 14.788283531857315,13.432018813552716 16.75,14.919901200528017 C 19.067143616145632,16.315596772563662 19.170176645352115,16.26334155943589 22.027493756594573,14.307964498213936 M 27.34528253163227,22.399075223028543 C 26.738125227544664,20.7788386351715 28.488707529934214,19.043379970116078 30.75,19.015312774517064 C 32.36091742253269,19.001998452351685 32.36865452384544,21.231345476154555 30.8,22.799999999999997 C 29.16538718104411,24.43461281895589 28.054870627225583,24.306565498935576 27.322897928733163,22.399075223028543 M 0.02933816641145718,8.79662577496504 C 0.0886803892393758,3.9641545627357173 3.8522590463250737,-0.2388355891148105 7.756002691254128,0.17524328482374507 L 10.817658435626786,0.5 L 5.392557329875698,6.296625774965041 L 0.0,12.093251549930082 L 0.06551657042423316,8.79662577496504 M 28.5,1.0 C 28.160081306187557,0.44999999999999996 28.835081306187558,4.996003610813204e-17 30.0,1.1102230246251565e-16 C 31.164918693812442,1.7208456881689927e-16 31.839918693812443,0.4500000000000002 31.5,1.0 C 31.160081306187557,1.55 30.46110579723048,2.0 30.0,2.0 C 29.51491869381244,2.0 28.839918693812443,1.55 28.5,1.0 Z" /></svg>