<svg version="1.0" xmlns="http://www.w3.org/2000/svg" height="32" width="32"><path d=" M 0.46782208530934266,30.947935040343424 C 0.01922310872758648,30.222086648915724 2.869095549801621,30.104584862457873 9.658805090934395,30.568985826020807 C 15.071462290920477,30.93919948595449 21.075,30.840128446558893 23.0,30.34882796069726 C 27.05303129493547,29.314409132430146 32.0,29.70884435082179 32.0,31.066422345697212 C 32.0,32.40029736618621 1.294121151583062,32.284915014446604 0.46782208530934266,30.947935040343424 M 1.6941442424520816e-21,16.696156068292908 L 0.0,5.3956505566902635 L 13.75,5.540420265225478 C 21.3125,5.620043604919847 28.5125,5.756022229664537 29.75,5.842594986880346 C 31.935949743196378,5.995519185994448 32.0,6.309989602621258 32.0,16.889520834183315 L 32.00000000000001,27.779041668366627 L 16.000000000000004,27.887851624131088 L 3.388288484904163e-21,27.996661579895548 L 1.6941442424520816e-21,16.696156068292908 M 9.459306166317909,25.06584400603016 C 9.804880707237109,24.552058209346747 11.599592259025936,24.385319221790247 13.509859516141768,24.695312922571276 C 18.240722776403757,25.463026343023138 20.0,23.76812331389013 20.0,18.44265494573235 C 20.0,9.683962335461986 16.016664643828456,5.992547312935265 12.445925595520505,11.442183922177566 C 10.048857946850696,15.100571565825602 10.88950105454768,18.42999357139535 14.309285616880416,18.822143149358748 C 17.779610377297924,19.220088214431897 17.34495162605658,21.130131584880903 13.55330828801852,22.144173319184205 C 10.998885213076536,22.827331352291523 5.0,22.287869626445552 5.0,21.375 C 5.0,21.16875 5.9476966560943305,20.07436396109395 7.056968975346773,18.94303102465323 C 8.549594275809136,17.450405724190865 9.029718887742684,15.872853427837782 8.806968975346773,13.193031024653228 C 8.516670281201794,9.700554031880165 8.31067245013211,9.5 5.013695043032165,9.5 C 2.386667800169783,9.5 1.4374292440721832,9.967129085138513 1.16239641263161,11.395259726080111 C 0.8484514057631253,13.025445044433205 1.231155900481065,13.203768819903788 3.8987013695994452,12.670259726080111 C 7.973642311191866,11.855271537761627 8.022514709356532,13.867905203667672 4.0,16.841878912177805 C -0.1250497931096577,19.891660085747638 -0.2667128997689896,24.675264308854516 3.7499999999999996,25.283745563123105 C 8.629792133489202,26.022972416535076 8.873517241596558,26.013670396462558 9.459306166317909,25.06584400603016 M 27.07121132724093,22.31270001534732 C 27.694091303590078,20.674401523649017 27.778349698205556,17.649148810209528 27.287061909034996,14.562700015347321 C 26.631547920327048,10.44452243173848 26.109826379451523,9.5 24.490601428857765,9.5 C 22.83521304756178,9.5 22.415801063261036,10.34198936738966 22.0,14.5 C 21.25496531195184,21.95034688048161 21.876005446353012,25.0 24.138250206056917,25.0 C 25.292308457796416,25.0 26.454279206933325,23.935354460115747 27.07121132724093,22.31270001534732 M 14.18044904692416,14.75 C 14.356202071115872,13.5125 14.95,12.5 15.5,12.5 C 16.05,12.5 16.643797928884126,13.5125 16.81955095307584,14.797363267218945 C 17.039425865410355,16.298167977565832 16.627824481364954,17.0 15.5,17.0 C 14.372175518635046,17.0 13.960574134589645,16.298167977565832 14.18044904692416,14.75 M 24.078947368421055,19.416666666666664 C 24.12693129003894,18.251723680721295 24.363887667657607,18.014767303102627 24.68311403508772,18.8125 C 24.971984649122806,19.534375 24.93645833333333,20.396875 24.604166666666664,20.729166666666664 C 24.271875,21.06145833333333 24.035526315789475,20.47083333333333 24.078947368421055,19.416666666666664 Z" /></svg>