<svg version="1.0" xmlns="http://www.w3.org/2000/svg" height="32" width="32"><path d=" M 22.8125,31.31688596491228 C 23.534375,31.028015350877194 24.396875,31.06354166666667 24.729166666666668,31.395833333333336 C 25.061458333333334,31.728125 24.470833333333335,31.964473684210525 23.416666666666668,31.921052631578945 C 22.251723680721298,31.87306870996106 22.014767303102627,31.63611233234239 22.8125,31.29230869697802 M 20.2,25.8 C 18.740839028205624,24.316606127520014 18.64536756500113,19.29467017222644 20.060019005059818,18.813326998313393 C 20.743964448956213,18.585345183681262 20.5687601482109,17.40274512535432 19.566179746634667,15.47999366498006 C 17.465386255233653,11.4510861108472 17.603069375457423,8.77433290190043 20.072580149032895,5.634858691801277 C 23.014087468475275,1.8953381086062988 27.20392650733402,2.0732768727460846 30.041462213919342,6.058228310068124 C 31.89626625489602,8.660566127513937 32.161297416182485,10.139647019342265 31.822040904252663,16.11422751260936 C 31.480982701185134,22.179537573060244 31.077593700059644,23.437789595595277 28.96248447969514,25.06318539843441 C 26.156404378983854,27.247935624362732 21.971471073102887,27.571471073102888 20.2,25.538584622670243 M 26.5,20.166666666666664 C 26.5,17.07601832455506 24.564362013060133,17.418090062239745 24.173061611058984,20.577890182407153 C 23.944664615690026,22.422224738982948 24.24607123205967,23.069467721453837 25.173061611058984,22.775646129647004 C 25.902877724976545,22.532374091674484 26.5,21.358333333333334 26.5,20.166666666666664 M 27.009497702280708,11.190983005625053 C 26.967572784192075,7.491405000790923 25.946524160702158,4.000000000000002 24.88336863603901,4.000000000000001 C 23.86677935629451,4.0 23.659201732960998,13.325868399627662 24.639480173229227,14.306146839895895 C 25.815645633217276,15.482312299883944 27.000142474234124,13.910043977949229 26.986345316707556,11.190983005625053 Z" /></svg>