<svg version="1.0" xmlns="http://www.w3.org/2000/svg" height="32" width="32"><path d=" M 12.67871932283405,27.171259328415935 C 10.279354342857033,24.546214168998794 10.61385844424077,23.203528107460052 13.505746380851269,23.756347514399536 C 15.95368623013824,24.224300867146834 19.0,22.628141494420863 19.0,20.877555284557825 C 19.029044505123235,20.389565972067217 18.346173859506624,19.9659748661754 17.547053021125834,20.0 C 14.899231073894653,20.088869910040877 11.0,17.70307442391517 11.0,16.14331819601885 C 10.791455396693147,15.120665105046621 9.812267373749169,15.758862220386145 7.444544986050385,18.05374911579969 L 3.88908997210077,21.499831798945472 L 6.572029530901025,23.639133075676614 C 9.571034567349148,26.03045616096653 9.097146749352,28.0 5.5227704738608505,28.0 C 1.9863426815728435,28.0 2.194271633472026e-15,26.9776056495056 -1.7763568394002505e-15,25.123545706710537 C -6.42785809666819e-15,23.02499203795918 5.082453161088746,13.000000000000002 6.163519388350504,13.0 C 6.623583724757727,13.0 7.0,11.635876841647573 7.0,9.968615203661273 C 6.999999999999999,6.679811443962241 4.637352192246322,4.9626478077535925 2.732782557175587,6.867217442824424 C 1.070005739676982,8.529994260323114 -2.4177991737276243e-16,8.251124630417653 1.7763568394002505e-14.776643856347125,6.154987562112087 C 3.890194651857167e-15,3.9594506242873857 3.011318111736107,0.9999999999999907 5.245334145522474,0.9999999999999982 C 6.1186531868173635,1.000000000000001 7.730205951643255,2.231409008372644 8.826562511802232,3.736464463050316 C 10.735110667430048,6.356479626480479 10.901590739555285,6.399034280923294 12.73870970944789,4.7364644630503125 C 13.794034107994026,3.7814090083726386 15.602405183812438,2.9999999999999987 16.757312100155474,3.0000000000000018 C 19.16717828124905,3.000000000000008 21.999999999999996,5.470115023105887 22.0,7.571428571428543 C 22.0,9.883940132166444 23.375228066530948,9.20662634459499 25.203489686369466,5.993677370935458 C 27.41759120433934,2.1026613792702946 32.0,1.6911731322431018 32.0,5.383368636038998 C 31.999999999999996,6.860548634640949 31.29723476979375,7.950514508118946 30.15165569399599,8.25009016605904 C 28.268539749352737,8.742536047807649 27.0,12.68426261865055 27.0,18.043212531764226 C 27.0,22.139540629708225 27.970393263979982,24.0 30.106988804184336,24.0 C 31.459534079721045,24.0 32.0,24.713764822777605 32.0,26.5 C 32.0,30.126539413572726 27.64890649608611,29.963559704753205 25.325712851880006,26.25 C 24.379496642574367,24.7375 23.4876171456798,23.330994344039834 23.34375841433652,23.12443187564407 C 23.199899682993237,22.91786940724831 21.898700601684705,24.155369407248312 20.452204900317557,25.87443187564407 C 17.464497691693506,29.42512015217801 15.057063085640326,29.82552290516852 12.654987562112089,27.171259328415935 M 19.61059816519721,12.415364479126413 C 20.033870957914512,10.728911344539377 19.74262740942496,9.314055980853531 18.77250733626927,8.34393590769784 C 17.456783268862623,7.028211840291195 17.09668871770961,7.046168425147529 15.642857142857142,8.5 C 13.964698175601438,10.178158967255708 13.469658172540221,13.136324839206889 14.666666666666668,14.333333333333332 C 16.263022814623447,15.929689481290115 18.994518340096384,14.870022019307726 19.61059816519721,12.415364479126413 Z" /></svg>