<svg version="1.0" xmlns="http://www.w3.org/2000/svg" height="32" width="32"><path d=" M 2.6666666666666665,31.333333333333336 C 2.3,30.96666666666667 1.9999999999999998,30.066666666666666 2.0,29.333333333333336 C 2.0,27.558764027356066 4.776568640941723,27.63371149808458 6.6003674549572935,29.457510312100148 C 8.479532392948414,31.336675250091268 10.676177103726511,30.47430209826005 11.21701805281348,27.64507541653323 C 11.87866193537432,24.18390900614472 11.066801180642335,23.0 8.031676600150627,23.0 C 1.7279443266054155,23.0 -0.624814650975174,11.533905560066108 4.605661958677507,6.303428950413402 C 6.880779963151836,4.028310945939062 7.007636001826532,3.583777503184807 5.605661958677507,2.799193382296721 C 2.5327950645632553,1.0795306092902597 4.034676694149597,0.0 9.5,0.0 C 14.981257106758054,0.0 16.466388642651058,1.079987429700572 13.368873366611886,2.8134441307461344 C 11.904512553018854,3.632941643706671 11.971095791265531,4.041889980412363 14.02012008716188,6.813343657520047 C 16.12380283277753,9.658726844279201 16.256911113660856,10.603989230968903 15.97845190016678,18.88695907645274 C 14.951021705340338,30.76059796390709 14.233753155582786,32.0 8.131482908178668,32.0 C 5.492500642013735,32.0 3.033333333333333,31.7 2.6666666666666665,31.333333333333336 M 10.810365261726034,13.25 C 10.601077561024413,10.721273449656016 10.011490620137593,9.5 9.0,9.5 C 7.988509379862406,9.5 7.398922438975588,10.721273449656016 7.189634738273966,13.25 C 6.920481035542633,16.50205978152754 7.160868681926317,17.0 9.0,17.0 C 10.839131318073683,17.0 11.079518964457368,16.50205978152754 10.810365261726034,13.25 M 25.184571409000135,29.344874832378295 C 24.591287110528818,28.236312980375413 24.158639192173347,25.012775504049532 24.223131590432416,22.18145821832079 C 24.307524897224408,18.47645988099579 23.828129111892164,16.467566149519815 22.512728409742195,15.014064734450592 C 20.865078543896917,13.193432125975907 20.815913950879107,12.576194744870278 22.013560840574236,8.747260430498148 C 22.744232825170556,6.411267193724166 23.232888422473238,3.4875000000000007 23.099462167913536,2.2500000000000018 C 22.89417757914342,0.3460293051669243 23.336216233707873,3.0063389918083445e-15 25.973747547558578,0.0 C 28.977962158101402,-3.424295846652624e-15 29.067527705923943,0.1231251180934656 28.451602387313194,3.406289328657113 C 27.949382590834308,6.0833509980087666 28.260805917189458,7.260805917189469 29.90628932865711,8.906289328657119 C 32.29235062087054,11.292350620870554 32.669945128089196,14.0 30.61663136396099,13.999999999999998 C 28.746767994510403,13.999999999999996 28.015600781413244,17.289910623279482 28.644782109212635,22.87239976642705 C 29.00311487818536,26.05175157494427 28.712070572292134,28.104079709443525 27.71480581879841,29.43022091800995 C 26.28485147532806,31.331743432067704 26.247232108286383,31.330474511801455 25.184571409000135,29.344874832378295 Z" /></svg>