<svg version="1.0" xmlns="http://www.w3.org/2000/svg" height="32" width="32"><path d=" M 30.63837360052304,30.5 C 30.954955804838132,29.675 31.39083264648571,29.0 31.60698880418433,29.0 C 31.82314496188295,29.0 32.0,29.675 32.0,30.5 C 32.0,31.325 31.56412315835242,32.0 31.031384796338713,32.0 C 30.498646434325003,32.0 30.32179139620795,31.325 30.63837360052304,30.5 M 0.0,15.621972060215755 C 0.0,0.8749352603591873 0.0725853206666578,0.7090581926525386 5.452946978874172,3.1605150203081056 C 8.302500572064568,4.458858524994427 13.62653400694928,2.8227703127265356 12.49737124734246,0.9957465888520804 C 12.12517103809164,0.393513999664435 13.387270201118572,0.05381845671019081 15.690983005625055,0.1361820538332772 C 18.062149326655014,0.22095728588264732 18.640445064824544,0.4372929470111765 17.22294897072624,0.7092778731723666 C 15.97057090462567,0.9495804442005692 15.04629305503847,1.6757985199755967 15.168998193865793,2.3230958193390947 C 15.291703332693114,2.9703931187025927 15.053946707148562,4.495502291729019 14.640650137100117,5.712227314953376 C 14.21594579017647,6.962536279079531 14.378433092946004,8.838591610459098 15.014339701511423,10.026793977365715 C 16.660723025633686,13.103089358177778 18.81899075215516,10.85568788677408 19.196307795226573,5.672115856720037 C 19.443866736689788,2.2711573569058325 19.868866081146535,1.5 21.24207184370523,1.5 C 24.388661120569772,1.5 26.308541261238336,7.94668717307416 25.66094529975527,15.48651060060593 C 25.195973500883948,20.90007935456002 24.760624529844208,21.833207745628105 21.112104531145796,25.236510600605932 C 16.78864374627344,29.26939145031757 11.366821166304874,30.351845040515194 9.110113531726949,27.632678688960425 C 7.727839874214685,25.96714082284208 9.147869901363261,24.598989067592246 13.285369514234716,23.609958259198915 C 16.888549532650092,22.748651581292822 18.986615785029198,18.105377951392256 17.110481952409177,15.144523149397225 C 16.405129419241547,14.031358193562372 15.76310702066803,14.109112281841108 13.519050753093284,15.579474420784427 C 10.970267368350036,17.24950143545662 10.72310165457998,17.256594448269023 9.843565912595805,15.684951271387202 C 9.32494553573975,14.758228072124243 8.256553736661292,14.000000000000002 7.469361914643676,14.0 C 5.922250678683005,13.999999999999998 5.184800305350583,16.288087977357847 4.766542810125442,22.38603941588022 C 4.579076595101794,25.119187987342038 3.8324811916881085,26.712917937528704 2.25,27.758011476095973 L 0.0,29.24394412043151 L 0.0,15.621972060215755 Z" /></svg>