<svg version="1.0" xmlns="http://www.w3.org/2000/svg" height="32" width="32"><path d=" M 0.12424627615232156,28.77482716262798 C 0.12236842105263171,26.9625 0.40608793651895525,26.192118341466603 0.7477270512076113,27.0 C 1.0229440203880171,27.805809671710286 1.976386820990829,29.263100039439006 2.7854753742594744,30.25 C 4.176608348557305,31.868912327256044 4.121451811729204,32.0 2.1582108142691445,32.0 C 0.34220249564417704,32.0 0.013708415107427457,31.435670244744237 0.07894736842105271,28.77729233963923 M 30.5,30.0 C 30.160081306187557,29.45 30.358523658718834,29.0 30.913205806530208,29.02422570236535 C 31.547912745806133,29.0 32.0073896272855,29.45 32.0,30.0 C 32.0,30.606371888489495 31.801557647468726,31.0 31.587647954480037,31.0 C 31.316476341281167,31.0 30.839918693812443,30.55 30.5,30.0 M 4.447664531085119,24.23145934195537 C 3.1058832583946745,22.718912488128375 2.0061446074816,21.06583835704391 2.0136546832924447,20.485015163422766 C 2.0471197924774818,17.634882026938175 3.422157536737074,15.11202753903501 5.5896515693483755,13.984301027365705 C 6.887219896380404,13.257582442005807 8.239495016100557,11.820778524390105 8.5847972968697,10.770891695948176 C 9.452470316109379,7.92921547380221 14.953598700397047,4.948705411766871 19.303428804660648,5.003738060437554 C 23.11477967010356,4.963344521230326 29.999905231123012,9.20007188645349 30.009552153545187,11.562908795233998 C 30.00000701571653,12.878684148276315 25.281712779009627,17.353524450590758 22.25,18.97958119703228 C 21.0125,19.54955093345271 20.0,20.736690629116406 19.996023223707915,21.53392534304608 C 19.999999999999996,23.566883209055135 16.156817544149344,25.685749178695225 11.207518351988167,26.293760392847922 C 7.487896634969223,26.75070826133309 6.587064703400447,26.459379399472397 4.526576158978641,24.146873970129814 M 10.315741454089334,22.87795125223429 C 15.400446466704242,20.12852766499413 16.451780724260008,16.0 12.056703968649053,16.0 C 8.921839515794744,15.986338756437963 6.010205595103296,19.00182487428336 6.0,22.222506243405427 C 6.0,24.288064695812324 7.255237378031801,24.466691062807342 10.285964595107739,22.83665718435538 M 22.012951456740186,14.307964498213936 C 25.156113971108585,12.166923807747535 25.95416153487125,11.006628816644941 25.330161035978456,9.418002577111286 C 24.424031497249253,6.967343107290758 21.693529365220215,6.952164057636859 18.356884653142522,9.268086687219371 C 14.618149141782574,11.769278894507424 13.606049714846437,13.40881789667573 16.764343327026,14.919901200528017 C 19.053434368723423,16.274329661229007 19.170176645352115,16.30397234219633 22.015917372465694,14.295143458078197 M 27.322897928733163,22.426287504100394 C 26.701154812980743,20.7788386351715 28.409543021987684,19.043379970116078 30.711176085285413,19.015312774517064 C 32.33912104260622,19.024697747606417 32.36865452384544,21.231345476154555 30.815998354611597,22.782683913790763 C 29.16538718104411,24.46252824860584 28.079022747433527,24.306565498935576 27.33367338162612,22.399075223028543 M 0.03596291905004784,8.79662577496504 C 0.0886803892393758,3.9641545627357173 3.8522590463250737,-0.2388355891148105 7.756002691254128,0.19643842676250656 L 10.817658435626786,0.5 L 5.3737472042158,6.31752441708344 L 0.01664941506879293,12.069706348523566 L 0.03596291905004784,8.79662577496504 M 28.5,1.0 C 28.160081306187557,0.44999999999999996 28.835081306187558,4.996003610813204e-17 30.0,1.1102230246251565e-16 C 31.164918693812442,1.7208456881689927e-16 31.839918693812443,0.4500000000000002 31.5,1.0 C 31.160081306187557,1.5725540512501415 30.48508130618756,2.0 30.0,2.0 C 29.51491869381244,2.0 28.839918693812443,1.55 28.488702477596593,1.0095606647784454 Z" /></svg>