<svg version="1.0" xmlns="http://www.w3.org/2000/svg" height="32" width="32"><path d=" M 0.07894736842105271,28.783716786230737 C 0.13388341322941893,26.9625 0.38679490154778967,26.166616918713522 0.7094351805684382,26.983154323035905 C 1.0624606854303889,27.825 1.9470005117788873,29.2875 2.8320118949567252,30.243703005066397 C 4.18170881862935,31.846905939195835 4.121451811729204,32.0 2.154987562112089,32.0 C 0.3741918780018243,32.0 -0.01926284127138278,31.435670244744237 0.07894736842105271,28.75 M 30.5,30.0 C 30.160081306187557,29.45 30.358523658718834,28.97672541844645 30.940983005625053,29.0 C 31.55282469450037,28.979925280608082 32.03476068304433,29.45 31.991134680570365,30.0 C 32.0,30.55 31.801557647468726,31.0158542432422 31.52932074632763,31.0 C 31.316476341281167,31.016199133395347 30.839918693812443,30.60116250123929 30.506625896982225,30.0 M 4.457518351988165,24.157606317219305 C 3.091972360513582,22.72507202947403 2.0124473893577015,21.08537606292955 2.0136546832924447,20.510218294867038 C 2.052519358677299,17.663006292441935 3.447780647177083,15.11202753903501 5.584571575569376,13.963789290649736 C 6.954550666556023,13.257582442005807 8.220423417686918,11.820778524390105 8.572716150928288,10.770891695948176 C 9.46681496641298,7.957470312456282 14.953598700397047,4.961335331995743 19.303428804660648,4.971042011778501 C 23.134169472730477,4.972180793056117 29.999905231123012,9.183218761574025 30.008259065706,11.562908795233998 C 30.00000701571653,12.860213223916587 25.281712779009627,17.353524450590758 22.321535407220203,18.922170036535846 C 21.03630933006424,19.54955093345271 20.0,20.767878042070397 20.027747287484715,21.523970397173724 C 19.999999999999996,23.617337648917697 16.156817544149344,25.685749178695225 11.207518351988167,26.341698188899542 C 7.487896634969223,26.75070826133309 6.587064703400447,26.467379851920853 4.457518351988165,24.17075975697781 M 10.28250378068136,22.83665718435538 C 15.400446466704242,20.147945002802885 16.470343873030206,16.0 12.056703968649053,16.0 C 8.937881025125044,16.04666891097356 6.024332541266947,19.00182487428336 6.0,22.222506243405427 C 6.0,24.288064695812324 7.240065119620499,24.466691062807342 10.261762108219,22.83665718435538 M 22.027493756594573,14.307964498213936 C 25.156113971108585,12.166923807747535 25.939774122941312,10.952625478228498 25.318562455456885,9.39888584027236 C 24.43126941687593,7.030597673128607 21.693529365220215,6.952164057636859 18.356884653142522,9.223844199245693 C 14.665866623783725,11.769278894507424 14.718741223960008,13.40881789667573 16.6975164752586,14.919901200528017 C 19.075412532673937,16.292492617886378 19.158124977296758,16.26334155943589 22.027493756594573,14.302618687192387 M 27.322897928733163,22.427974266139657 C 26.701154812980743,20.7788386351715 28.458841434340872,19.032356655966453 30.75,19.015312774517064 C 32.36231524708211,18.995845692752464 32.36865452384544,21.231345476154555 30.781165293262436,22.799999999999997 C 29.16538718104411,24.484317454364376 28.054870627225583,24.306565498935576 27.322897928733163,22.384624420057445 M 0.03596291905004784,8.775574018719634 C 0.0886803892393758,3.9641545627357173 3.8522590463250737,-0.2388355891148105 7.756002691254128,0.17524328482374507 L 10.817658435626786,0.5 L 5.39286165463232,6.2803562510864195 L 0.021123437104237405,12.097747824766099 L 0.019637750380274658,8.79662577496504 M 28.487451124422222,1.0 C 28.160081306187557,0.44999999999999996 28.835081306187558,4.996003610813204e-17 30.0,1.1102230246251565e-16 C 31.164918693812442,1.7208456881689927e-16 31.839918693812443,0.4500000000000002 31.49225957014857,1.0 C 31.160081306187557,1.55 30.48508130618756,2.0 30.0,2.0 C 29.51491869381244,2.0 28.839918693812443,1.55 28.5,0.9482636257141797 Z" /></svg>