<svg version="1.0" xmlns="http://www.w3.org/2000/svg" height="32" width="32"><path d=" M 22.75,31.337719298245613 C 23.4375,31.06030701754386 24.5625,31.06030701754386 25.25,31.337719298245613 C 25.9375,31.615131578947366 25.375,31.842105263157894 24.0,31.842105263157894 C 22.625,31.842105263157894 22.0625,31.615131578947366 22.75,31.401754322814607 M 27.791878198648167,17.0 C 27.985691137587114,7.0729196140627835 27.73221031362005,1.9999999999999971 27.042366546824287,1.9999999999999982 C 26.46906494607093,1.9999999999999991 26.0,1.55 26.0,1.0 C 26.0,0.44999999999999996 27.35,0.0 29.0,0.0 L 32.0,0.0 L 32.0,16.0 C 32.0,31.926954650245285 32.13565268157706,32.0 29.74951165182388,32.0 C 27.502533118841306,32.0 27.499480034099534,31.976606309494613 27.791878198648167,17.0 M 0.6666666666666664,28.333333333333336 C 0.2999999999999998,27.96666666666667 -2.7200464103316337e-16,25.86666666666667 -3.3306690738754696e-15.977996534155462,23.66666666666667 C -4.462403959151811e-16,19.589162020576502 1.202273424211967,19.208757105049376 1.4958286533256973,23.193379508311335 C 1.5846639832702556,24.39920114183133 2.167847459369283,25.555949153123095 2.7917919335457584,25.763930644515256 C 4.363905503681128,26.28796850122704 5.384175625804095,21.576936117040198 4.419086825857632,18.25 C 3.9803357472172527,16.737499999999997 3.5940521337736757,13.475000000000001 3.5606787959830166,11.0 C 3.489687322445429,5.735201551979411 1.805065227308043,4.165215670682691 0.8781354126215377,8.5 C 0.2969213053062789,11.21804592370397 0.22550979789103576,11.106111752625544 0.11831478842598542,7.309016994374945 C -0.012515562086799048,2.674703880067602 0.6423155313729931,1.8321967660576308 3.744579425258739,2.6434569983269416 C 6.676001462874974,3.4100410815840148 8.374071494049323,7.885918087492337 7.052355272246237,11.36229519841655 C 6.241601191500691,13.494740032185204 6.368015294090387,14.63202892029785 7.629861434124797,16.557849549285343 C 9.503659278390057,19.417626528862204 8.902330453371333,24.345454728941586 6.33313588315192,27.18438277367995 C 4.680823914261118,29.01016694803322 1.906109773034745,29.57277643970141 0.6666666666666664,28.333333333333336 M 12.337862242550631,25.26619231061674 C 10.176783493814654,20.094002835242417 10.244175067352373,7.802479961847452 12.45208701557782,4.432780406587369 C 14.659753327438068,1.0634557398056268 18.014774094839517,1.5415426796325957 19.94140245383889,5.5 C 22.01026670507349,9.750695678744904 21.849330590165994,21.621949024255365 19.666877411534973,25.75 C 17.27719084004282,30.270027315939874 14.34779999833963,30.076650473110757 12.337862242550631,25.26619231061674 M 17.0,15.5 C 17.0,9.166666666666664 16.603174603174605,5.0 16.0,5.0 C 15.396825396825397,5.0 15.0,9.166666666666664 15.0,15.5 C 15.0,21.833333333333336 15.396825396825397,26.0 16.0,26.0 C 16.603174603174605,26.0 17.0,21.833333333333336 17.0,15.5 Z" /></svg>