<svg version="1.0" xmlns="http://www.w3.org/2000/svg" height="32" width="32"><path d=" M 3.122130288366267,30.587881824051625 C 0.8984249212893246,28.048115518558404 0.6174378720038818,15.010861590676564 2.512863786358404,8.562314248814909 C 3.4743345384677826,5.294436389563682 4.843298071289919,2.0380141599235233 5.57284765409279,1.2679434886666334 C 7.734373279407554,-0.8772304222646374 12.417889811912016,-0.24853034341595004 15.07173957489561,2.5763632781180164 C 17.13555078347305,4.747892749377692 17.546438947397732,6.345000117024216 17.85924591361543,13.27415030507648 C 18.10876156250931,17.76609172117744 17.69577158535471,23.781296668132363 16.682762708289317,26.697787026958466 L 15.875835013513207,32.0 L 10.036786726398393,32.0 C 6.331661331898791,32.0 3.829938729205868,31.507260816349437 3.122130288366267,30.664758977291125 M 11.47324875585658,15.983864999796793 C 11.436053800256326,10.19420053626412 11.089109871428008,7.538888888888888 10.25,7.210077444279726 C 9.34577386855038,6.965089890647545 8.999999999999998,9.11111111111111 8.983509242411426,16.0 C 9.0,22.88888888888889 9.2012111415416,25.081102367427377 10.272383776257595,24.76303369312781 C 11.155265201611867,24.471588601239144 11.5,21.77777777777778 11.526992372964907,15.999999999999998 Z" /></svg>