<svg version="1.0" xmlns="http://www.w3.org/2000/svg" height="32" width="32"><path d=" M 3.087490758004425,30.677307587423062 C 0.902623896589999,28.05999131828889 0.5462958061632145,15.030660152878124 2.5972187934097004,8.570605689708799 C 3.4547814980335647,5.302024436015557 4.7879833751074115,2.007772313751797 5.55788815659259,1.2992547005502697 C 7.734373279407554,-0.8772304222646374 12.417889811912016,-0.24853034341595004 15.090776558865405,2.5303956579824893 C 17.166474158696825,4.77318963976039 17.546438947397732,6.349133970208559 17.846312591054986,13.27415030507648 C 18.01300139460096,17.740933366938727 17.69577158535471,23.78156989178562 17.521204144951405,26.71342726463362 L 15.921832217637757,32.0 L 10.050728475775628,32.0 C 6.39061854969324,31.989073585649297 3.8073859706295328,31.482028205747635 3.122130288366267,30.655471771165722 M 11.5,16.011710483774415 C 11.5,10.27931336900215 11.082065882976003,7.538888888888888 10.195789622077056,7.25 C 9.277442458007608,6.951276045121872 8.98856016200092,9.11111111111111 9.030047240589708,15.974600074669024 C 9.015419355978695,22.88888888888889 9.2771965947446,25.063131313131315 10.334263639796974,24.789314377761198 C 11.14932857664449,24.531581227152746 11.5,21.77777777777778 11.465181890898922,15.999999999999998 Z" /></svg>