<svg version="1.0" xmlns="http://www.w3.org/2000/svg" height="32" width="32"><path d=" M 10.8664972105847,29.126592554231088 C 12.056911741582972,31.043232885734643 5.495422081761594,32.54475394106545 5.171614027411732,27.98256372834549 C 3.6162644317036174,27.686872443461063 -1.978905855175966e-15,20.703697543459604 1.3322676295501878e-13.642691784502125,15.597871045069382 C 2.55351295663786e-15,13.714711862730386 1.215919495513826,9.434807575723822 2.7020433233640535,6.08697262949924 L 5.4040866467281035,0.0 L 11.587033389880101,0.0 C 18.68420703623886,0.0 20.208184361743456,1.3538092289522652 21.461451913063584,8.77183584263419 C 22.61898820724103,15.623234035674678 21.262404527860223,20.639942015378672 17.056606450257295,25.061154163719618 C 14.995792734536757,27.22751937367383 13.603987791000542,29.0 13.96370657573237,29.0 C 14.3234253604642,29.0 15.491249065587438,29.660688482658294 16.55887036489512,30.46819662812954 C 18.33763693422523,31.813588008535163 18.00880759824136,31.939053404693002 12.627555284557825,31.96819662812954 C 7.592730494084378,31.995463705619937 6.927798860527737,31.791923338176215 7.965805795067328,30.541201496395203 M 13.690483697410427,20.131324577063907 C 16.929537036012743,15.324893643140975 17.56418867855126,10.708711850146782 15.565124571324809,6.4959969570915135 C 13.858782193465107,2.9001473183152093 11.07798677144836,1.9041065136857793 9.294640443450874,4.25 C 7.705336052053903,6.340642048050909 5.0,14.410668374409987 5.0,17.06092654444263 C 5.0,20.328907307872168 7.758870430120602,24.193085638559563 9.810049963358889,23.79806455390058 C 10.700837392245973,23.626514569778017 12.447032572569166,21.97648158020151 13.690483697410427,20.131324577063907 Z" /></svg>