<svg version="1.0" xmlns="http://www.w3.org/2000/svg" height="32" width="32"><path d=" M 0.16515101729452483,24.428035717344752 C -0.024423557298668186,19.152611645407248 0.08389277513930882,18.873206389505956 2.204518640517343,19.178035717344752 C 3.866751800289821,19.41336064976425 4.574463359269203,20.272529092455333 4.822263141987058,22.400472929058882 C 5.32546071410399,26.72306587159625 4.216583932911234,30.026595390022344 2.1956936832964478,30.030820494284225 C 0.7466411615230215,29.943550254909397 0.36263012964080166,28.996897648060276 0.19884311309518485,24.428035717344752 M 12.110071316984506,28.552456051691898 C 9.159576523133026,26.969159393862473 7.149366645691506,23.368795291672292 7.042444700957696,19.752409644514476 C 6.93568295323175,14.180530125071193 12.28304738152567,15.629320020205464 13.664664844127792,21.640529183744935 C 14.87324450923835,26.782286948369446 16.650096486063493,27.042952314294656 16.157260226411054,22.070541635918367 C 15.907597829620258,19.041406455942273 16.2121204255967,17.86275401935331 17.412515369929288,17.83044153286258 C 19.80403440268982,16.469782212630776 21.9865985056883,18.90234377719284 22.060777317755324,22.389855148539375 C 21.966634338893115,26.059653770379477 21.317185539187893,27.297704671602997 18.315741454089334,28.892672086331764 C 15.608554895536756,30.296317194199098 15.087215767648976,30.27031602438907 12.134103861603478,28.57584658764137 Z" /></svg>