<svg version="1.0" xmlns="http://www.w3.org/2000/svg" height="32" width="32"><path d=" M 0.20899879737917387,24.428035717344752 C -0.024423557298668186,19.152611645407248 0.08389277513930882,18.873206389505956 2.231583776579614,19.178035717344752 C 3.889577918269214,19.41336064976425 4.579669285642303,20.272529092455333 4.872941462206019,22.37082918334329 C 5.32546071410399,26.72306587159625 4.1947791784748185,30.0332304149339 2.214913098879256,30.0 C 0.7466411615230215,30.0 0.3876234850435468,28.99946509246159 0.19632948809097708,24.404165881252325 M 12.132704870143304,28.631245615154853 C 9.159576523133026,26.92851115210054 7.068165739276861,23.368795291672292 7.0424995004114095,19.802075270437523 C 6.9313187589140925,14.151650083720835 12.24553679576673,15.649904318427174 13.66512264377863,21.663856197988025 C 14.87324450923835,26.76098214701798 16.650096486063493,27.01970740348305 16.168026071054243,21.992451815311394 C 15.88654043101987,19.001443021553168 16.19408235597948,17.86275401935331 17.408520190360193,17.023695215299437 C 19.824108696317595,16.457318617366337 22.001993053013752,18.83781862352525 21.984687225482936,22.37244471544217 C 21.966634338893115,26.052271186642447 21.265423178068783,27.297704671602997 18.315741454089334,28.85029599988861 C 15.608554895536756,30.275247831366066 15.087215767648976,30.283180453883908 12.139900150128636,28.604493267286095 Z" /></svg>