<svg version="1.0" xmlns="http://www.w3.org/2000/svg" height="32" width="32"><path d=" M 13.114444714915596,29.25 C 11.539993190521963,27.968499337999976 10.696165517312105,25.460825860730466 9.813460698309832,19.883010061538524 C 8.84136765844607,13.321109473232658 8.965031073731343,11.585142791166794 10.384490226134426,7.065448161201759 C 11.30587204297336,4.257987919885466 11.80068880007914,1.466708782412277 11.474690391139804,1.0057726051552751 C 11.107575896021485,0.3650444617580426 15.03941903158622,0.01967879153654591 21.748918989221004,0.1887394597429518 C 30.911176987381182,0.41806303319317994 31.381336320714226,0.3998041708792973 24.88955212484015,0.7482143822344036 L 17.272418106787153,1.1061623113046308 L 20.959001281013155,4.315936466053361 C 23.326901863789452,7.187053083467037 23.713201946264515,8.312832435192274 24.38382610608302,14.870841562026024 C 24.975855359077176,23.07569020088976 23.646874349689433,28.083541280755327 20.15039955418143,29.942954496409147 C 17.313286395270854,31.437885484959775 15.546370791051235,31.295875725087253 13.03293501183359,29.27745581158633 M 17.31004331701409,17.23388369896204 C 16.494218297904485,10.788491411346932 15.999999999999998,10.658547029001996 16.0,16.822862772993574 C 16.025865471019987,19.62045775147143 16.474681014405814,22.0 16.865297741192208,21.921012378240885 C 17.51867832880493,22.0 17.72908440836835,20.13963674382805 17.31541563037764,17.25 Z" /></svg>