<svg version="1.0" xmlns="http://www.w3.org/2000/svg" height="32" width="32"><path d=" M 13.114444714915596,29.23855122001314 C 11.591586036708856,27.957013299607038 10.696165517312105,25.425443424973054 9.821780717174567,19.883010061538524 C 8.831983853515863,13.305328378890115 8.907621151605728,11.536231116439701 10.33487780064892,7.092058254160765 C 11.345699821068461,4.24637922625681 11.80068880007914,1.5256823699309991 11.474690391139804,0.9753644618707018 C 11.107575896021485,0.3650444617580426 14.996224107140534,0.07659999655700878 21.731825708423585,0.17523468031820572 C 30.911176987381182,0.36150136520273785 31.356448847353633,0.45221649577614853 24.88955212484015,0.7613848610989249 L 17.282128362335225,0.9953948810256893 L 19.99882457373562,4.289552124840153 C 23.348190266536303,7.178570769298772 23.746277552938807,8.312832435192274 24.397347978490743,14.880172183314194 C 24.975855359077176,23.107099319583963 23.591511638351083,28.069126571984103 20.177524782422967,29.933780306623376 C 17.30117207045499,31.46555799757249 15.546370791051235,31.269754048381095 13.158299275568341,29.271563498547536 M 17.281879848729634,17.25 C 16.444613407097968,10.780734179682332 16.094503481001095,10.634815651800487 16.006139818120374,16.857923030797973 C 16.025080693985363,19.674999999999997 16.414683575003185,21.974062855510752 16.976130202248807,22.017844662686393 C 17.53060838449397,22.0 17.71445680760294,20.126400545556077 17.339992015665327,17.241946355906784 Z" /></svg>