<svg version="1.0" xmlns="http://www.w3.org/2000/svg" height="32" width="32"><path d=" M 4.744583936218404e-16,22.11663136396099 C 9.085437745752438e-16,13.074266644205675 0.17018568207949514,12.188758172315081 2.000000000000001,11.710250979070922 C 4.680568782167476,11.009266495732435 4.680568782167473,6.990733504267565 2.0000000000000004,6.289749020929076 C 0.5738514013733838,5.916802784584474 0.0,4.925733355794323 0.0,2.835651230392184 L 0.0,-0.09543481129364295 L 6.25,0.20228259435317852 C 12.166266754086319,0.4841026886157578 12.500741388183974,0.6334932983654724 12.51388437084579,3.0 C 12.52450809883673,4.912893300844075 13.111614797992655,5.56894819415633 15.01388437084579,5.7935931162745025 C 18.06210492691402,6.189946827294319 20.249037736710168,9.871152529103139 20.017631183659773,15.44936454211564 C 20.03697778317289,17.677214043952038 20.518286727174456,21.3 21.093432065419684,23.5 C 23.483744405535774,32.6432318034598 23.598166918645983,32.0 19.58139339412664,32.0 C 16.23616940107798,32.017362115468224 16.02920299601725,31.81395079463071 16.964816241512,30.065741454089338 C 17.534167308680395,29.001899253838474 17.98680895024325,25.064399253838474 17.97068655609612,21.315741454089338 C 17.94431925680372,15.185015381474976 17.64422132185752,14.173359090160627 15.006017449347395,11.250000000000002 C 11.68582019262611,7.623650727819205 10.406516058344504,7.326536683477098 7.339874581795026,9.474495984438907 C 5.931904973730095,10.460676285671074 5.011416074960351,12.530517812708847 4.56040787279325,15.724495984438903 C 3.6311129397896007,22.305635123042148 2.952720813964399,24.12539584574971 1.9295003711890326,23.45642883320057 C -0.12314448629028862,22.18782454444567 1.6721347908803015,27.588642781127337 4.0,29.685204654614076 L 6.5,31.936797514536977 L 3.25,31.96839875726849 L 0.0,32.0 L 4.744583936218404e-16,22.11663136396099 M 31.25218340430849,28.5 C 31.26328279115541,26.3 31.468067649298018,25.517746624663353 31.70726086684761,26.76165916591856 C 31.9464540843972,28.005571707173765 31.937372767886078,29.805571707173765 31.68708016348956,30.76165916591856 C 31.436787559093048,31.717746624663352 31.241084017461564,30.7 31.27601916758919,28.5 M 8.519197501769764,29.75 C 8.289279403715717,29.0625 8.254070300955137,26.925 8.440955051190695,25.0 C 8.627839801426253,23.075 8.830077767277439,19.3625 8.890372753082218,16.75 C 8.972117574762818,13.208107688556126 9.387802783467395,12.0 10.524750847063704,11.999999999999998 C 13.401626427153799,11.999999999999995 15.130576470550121,22.179363369964435 13.369713952746569,28.75 C 12.720800432008188,31.171412748570205 9.234896365465001,31.890079328051897 8.519197501769764,29.75 M 31.217305870217775,14.5 C 31.215328409026068,12.85 31.439447309831042,12.296064350216648 31.69299072068511,13.269031889370329 C 31.94653413153918,14.241999428524009 31.929859839614803,15.591999428524009 31.655936738630942,16.26903188937033 C 31.382013637647084,16.94606435021665 31.17456902876648,16.15 31.194948718896274,14.515445320386318 M 16.393315009215375,3.5825791932643596 C 15.532154895743272,1.3384319104076914 17.203579731499705,-0.25506684046653383 19.977670897127215,0.16533511031923442 C 22.182732949442727,0.4995030713016616 22.182200529106076,0.5035633490557849 19.6191035738374,2.8997966360887824 C 17.313453363952046,5.055343569194467 16.985134752722,5.124836723024359 16.393315009215375,3.5825791932643596 Z" /></svg>