<svg version="1.0" xmlns="http://www.w3.org/2000/svg" height="32" width="32"><path d=" M 27.601029022427987,29.79453382786202 C 25.351048544981154,26.360629581685 23.004648964040758,14.18337461178359 23.435221245318193,8.134941100944397 C 24.073636977726576,0.4379980494715019 26.811719507581138,-2.0755040697034906 30.337166813351264,1.8735950063705271 C 32.561164031971884,4.360288145670865 32.78652904128101,29.057750592165373 30.56690154307698,30.81287415902093 C 29.415885988810793,31.92597973496562 28.832100607218024,31.673386548911143 27.586810304594785,29.803297319368863 M 29.690001034200645,23.71848969506854 C 29.327931054647483,23.047408374077335 29.16705589357564,23.625 29.11964902569209,25.0 C 29.2298081566707,26.66082750318626 29.349640326517793,26.918687953315576 29.643132906025794,26.266607129438274 C 29.93969298245614,25.5625 29.95835778955618,24.51595132696599 29.764264607152114,23.75 M 15.29211073897794,29.672922592375357 C 12.618334739292676,26.419800216426857 12.804845821854348,20.97783888315632 15.581213311067108,20.971962352290177 C 16.48743464585819,21.021619731615004 17.0,22.193356274851773 17.0,24.545371206056092 C 16.967779053042783,26.443378124190453 17.468917927278564,28.0 18.135283463414183,28.0 C 19.81694790006787,27.95862335747426 18.26308686810611,18.828662134028498 16.19268153050882,17.55078319817137 C 14.878061981487257,16.560222586231433 15.003046820840307,15.789096094798568 16.03518345119851,12.211464683539024 C 17.318496234095615,7.3323695680268335 16.8069610907462,5.971031767127996 14.114793863393405,8.446765346977605 C 12.406721633236842,9.88819870638461 12.220910239675485,9.905210068685863 11.686826498832957,8.385268015581147 C 11.261352133359237,7.531308864932586 10.882495483175155,5.298229424234578 10.966599420734806,3.4182125317642438 L 11.090662600846802,0.013189129571899437 L 16.0,0.0 L 20.957549855331006,0.0 L 21.0,3.441567564010817 C 20.944423171088186,5.33544622028436 20.22836125369479,8.52385694461396 19.37842212654732,10.45217857509636 C 17.789715415030884,13.745874170762516 17.718557378926427,14.10901273739686 19.208969818951303,15.442455454332759 C 21.265544521301564,16.840964988363172 22.951426409854857,21.312948032446783 23.075177322602304,24.93876658281116 C 23.054002090193716,29.52798027081315 17.77995716866845,32.83227501814454 15.244833527489787,29.761568466346304 M 3.622158980950362,5.632001180103061 C 3.2320430638260347,4.054601829159744 3.0857843871119797,2.5850266873907533 3.407247639045166,2.1898634116195246 C 4.232987480168485,1.3841948385504628 5.137842133119346,4.703383207067755 4.756829947438626,6.691586733201817 C 4.508224188773167,8.024837732228777 4.200127576046105,7.746430642681464 3.6420947524791196,5.632001180103061 Z" /></svg>