<svg version="1.0" xmlns="http://www.w3.org/2000/svg" height="32" width="32"><path d=" M 27.630661533225513,29.798335363499415 C 25.347351095438576,26.346313525443858 22.978893915834743,14.232188858952833 23.440631657850773,8.146663991698635 C 24.073636977726576,0.4379980494715019 26.811719507581138,-2.0755040697034906 30.325639874860368,1.8258539949344978 C 32.59227712262532,4.351563432275806 32.8289942548365,29.084451774437678 30.504350190573252,30.94447665074241 C 29.458403307222927,31.88846015494688 28.8161351721031,31.64928427757596 27.641092433160438,29.787818777463613 M 29.662280701754387,23.75 C 29.384868421052634,22.969394487059553 29.157894736842106,23.596698322312964 29.16027731516841,25.063901409082604 C 29.139906099690748,26.064001650802552 29.384868421052634,26.838336938788306 29.696145311360286,26.25 C 29.945131220410865,25.585815810364842 29.968601675256107,24.4375 29.77578335621261,23.688662163587225 M 15.357995231152154,29.711375986361166 C 12.62115743952849,26.29695469884654 12.768531976961505,20.865863514761568 15.506798637626986,21.0 C 16.44834340263961,20.986786148432447 16.98881388983543,22.218046421694233 16.974296192140663,24.5 C 16.97255562767338,26.549004950306635 17.485615305757737,28.0 18.15761411731219,28.072186569689613 C 19.796998218218253,28.00204382555936 18.27621660781828,18.750326307894287 16.27801114484895,17.59572238643267 C 14.870128091965158,16.569628059052164 14.911316956494623,15.842758150580899 16.016688945793465,12.164352121206868 C 17.491166970764752,7.356019485495678 16.815171772662676,5.952304560531234 14.12430710877537,8.461416339095118 C 12.406405650524288,9.927998319124747 12.220384978309509,9.921249899994736 11.745195511100631,8.382730504966666 C 11.25769546054063,7.684738760896179 10.926764988671229,5.325187273805287 10.932292042527564,3.4296257990951373 L 11.05373412717814,0.028065262903809715 L 16.0,0.0 L 20.97759744111779,0.0 L 20.95481611510548,3.4500305853700826 C 20.976157652596,5.30571663885173 20.19030244779501,8.48138220421488 19.370398790628556,10.544822477898668 C 17.816354335166775,13.766492582403606 17.657793440125158,14.180544436164515 19.195072858739042,15.488333200938621 C 21.15662942594768,16.856968555093292 22.96914876720008,21.285927567880567 22.99489382950681,25.023233623289332 C 23.0575877439613,29.549869228379222 17.706622185019302,32.83376755258353 15.308195897972729,29.768304123466944 M 3.589703984930205,5.611434584524461 C 3.2198104401450305,4.061680229908023 3.0912210912887423,2.497717990949086 3.4047632794924354,2.2021990210702223 C 4.24831436665948,1.421105061876877 5.192852729633739,4.654241059743848 4.7008928623153485,6.691586733201817 C 4.471373994571246,8.070161365617707 4.1252212168452385,7.73151831839476 3.524052311398052,5.652072222255914 Z" /></svg>