<svg version="1.0" xmlns="http://www.w3.org/2000/svg" height="32" width="32"><path d=" M 4.057014638107184,30.537473179553565 C 3.1048787574375045,29.443916086660217 3.2900478168790457,28.709952183120954 4.933087624187439,27.047337140074713 C 7.271368947080273,24.717645881417546 8.27356224802188,24.562514663776106 11.100611481067318,26.06486643931666 C 12.632054990027932,26.878200921812656 13.165747907732817,26.690204355035636 13.683067866459957,25.442199262043157 C 14.36402291156346,23.483919206983717 12.492080469956079,22.036204807532226 10.051471029626605,22.713989062331073 C 7.809648020017046,23.284805075181442 7.331275295323753,21.63760979214194 6.541646659899372,13.395779859538985 C 6.974742666817396,7.948097621286816 7.194895765532032,7.24552111765324 9.35781480467758,6.273505633196255 C 11.805709211288008,5.1145953878182855 16.706730234849193,5.641231511485437 18.747041767828083,7.24510143002443 C 20.445460449557803,8.613382357945934 20.325188222197113,11.56239937552682 18.528102058277,13.348999142369353 C 16.546891668310312,15.336626277976533 16.577512475674077,16.334747013994388 18.981197743267366,18.44041583374109 C 21.319250395274004,20.598892761146512 22.402348827258177,24.961821209953104 21.54679124366474,29.0 L 20.85344761566358,32.0 L 13.048876486721367,32.0 C 7.502550080492196,32.027917358114344 4.897115221826105,31.58683402298402 4.018750777423482,30.566912375812564 M 27.599590490846932,26.43764830042101 C 26.68389588979838,24.017493005589223 28.005979583156044,20.067167341188348 30.11502837604018,18.938438681378045 C 31.88943609603228,18.01223731749761 32.02152359355529,18.34193221075438 32.0,22.964816241512004 C 32.022621693560694,27.215485806657934 31.718645820165964,28.010482161443058 30.096942825575518,28.0 C 29.06583264648571,27.992764891851312 27.9480278645902,27.307735432565874 27.60788074587422,26.40994816339659 Z" /></svg>