<svg version="1.0" xmlns="http://www.w3.org/2000/svg" height="32" width="32"><path d=" M 4.112181611996993,30.492101672077645 C 3.1100829490777686,29.398103633867002 3.2704299447221623,28.754457423311077 4.933087624187439,27.003648255011775 C 7.271368947080273,24.704971350578298 8.24977913915601,24.537285196913583 11.02633292870583,26.08991688062832 C 12.609272332451448,26.79951227131763 13.165747907732817,26.647195077718774 13.618237369304321,25.442199262043157 C 14.374192222719598,23.483919206983717 12.472450095526723,22.05855729663627 10.000755838281515,22.728956505957782 C 7.850944415807432,23.316871979336206 7.308825028345074,21.63760979214194 7.691490199334425,13.35595167388622 C 6.895951140597427,7.986124453059428 7.189247592330931,7.232229587143758 9.264628150265057,6.224753754591355 C 11.805709211288008,5.131402389886116 16.687975691776384,5.608418992884835 18.793383769367182,7.24409210231123 C 20.537229897399794,8.597070305814 20.24966781203733,11.509032463228007 18.47734602036974,13.321849694398187 C 16.572497714520214,15.384449241405623 16.586379700655478,16.3575753110179 18.80637823929758,18.553004716251078 C 21.303179807722046,20.63877245893444 22.38939326333377,24.928857223531637 21.553824654729027,29.0 L 20.841089468361822,32.0 L 13.042989449623086,32.0 C 7.493118749686349,32.02466836280382 4.907513875459211,31.58683402298402 4.078382198880853,30.546520255442726 M 27.603451929094348,26.44493177075595 C 26.673178815749285,23.985383315223928 28.02245990243149,20.06899781138145 30.168469216992023,19.003160216484563 C 31.92202418969258,17.990150581592367 32.02589594233326,18.34193221075438 32.0,22.964816241512004 C 31.98289975039297,27.23847418505153 31.68888730181678,28.0 30.10698880418433,28.0 C 29.06583264648571,28.0 27.94123402024616,27.366815674188327 27.62869474986176,26.436595398539115 Z" /></svg>