<svg version="1.0" xmlns="http://www.w3.org/2000/svg" height="32" width="32"><path d=" M 22.438411475726582,30.301985565377883 C 22.532091322633715,29.310893504420047 23.18792497095092,26.499084492646777 23.895819583098145,24.053521094770616 C 24.899589396797378,20.58579768770889 24.932470228899405,18.33412851541571 24.045196957326716,13.79562481412704 C 23.22080453545969,9.633898502963646 23.20749599211246,7.480807284074777 23.996870648294788,6.005847247147511 C 24.85830037659354,4.396251076418292 24.763355783657673,3.846421501082479 23.54312403901462,3.378174645937829 C 21.10363251562415,2.4420539139585427 21.71668590905525,-2.1046791130487576e-16 24.391181249569,1.7763568394002505e-15 L 26.782362499138006,3.552713678800501e-15 L 26.641181249569,15.750000000000002 C 26.504714778445138,30.974025334542453 26.429337131772492,31.510084873442707 24.384042240674987,31.801985565377883 C 22.85495015191757,32.02021475114649 22.315325058497635,31.60418635834331 22.438411475726582,30.301985565377883 M 2.2499999999999996,29.968837903635766 C 0.43819677608766394,29.240581990895052 -8.016902152327404e-16,28.27915612069658 -4.440892098500626e-16.02178279756394,25.03222420405484 C 3.96252799181458e-17,20.640211900594608 1.2521198367725965,19.944722030676864 4.558870364895113,22.5 C 6.3971032324954775,23.920486943032813 6.4072347668716185,24.072104698155258 4.75,25.360242598615372 C 2.2498565564072472,27.303557806971824 2.5746152272320435,28.0 5.980947971785086,28.0 C 9.340058846525608,28.0 10.387366404103252,25.789236557225824 9.823678704733243,19.8883726529427 C 9.504574853391235,16.547891034829924 9.432863814360982,16.500888194217502 4.75,16.57126601093745 L 4.440892098500626e-16,16.625682521071962 L 4.440892098500626e-16,12.24709980644665 C 4.440892098500626e-16,9.838879313402728 0.46583269131959937,6.998100746161537 1.035183758487998,5.934258545910668 C 1.7699294972194761,3.541961912405893 6.661144733238759,3.3833650740007153 9.15250171305551,5.638012153516019 C 10.602163265256545,6.949937827530065 11.256110274446774,7.03233678168456 12.437437508139666,6.051922256591142 C 14.564478173931466,4.28663529398753 16.269080371503115,5.628701634951469 14.973839743854173,8.048880885734905 C 13.633252072240596,10.553791863229836 9.7749289502941,11.485096905155542 6.965966804712789,9.98178598663283 C 5.207893588730062,9.040893755206115 4.575849523586162,9.068255898432156 3.9300284486161443,10.11321634838464 C 2.617489458177006,12.23694904647464 4.939854878649364,14.000000000000004 9.049864566409289,14.0 C 11.969370819349667,13.999999999999996 13.337156974259296,14.613167050637145 14.927419850967114,16.634858691801288 C 17.928397548783707,20.449983609736805 17.539771162488602,23.660228837511394 13.600000000000001,27.599999999999998 C 10.074227772490365,31.125772227509636 6.8186944332600685,31.80522868306194 2.2499999999999996,29.968837903635766 M 19.09968002535062,22.309016994374947 C 19.269674802528463,14.107697125848626 20.78548720280587,11.482877773998673 20.90031997464938,19.190983005625053 C 20.955143988592223,22.871023658718833 20.55,26.160081306187557 20.0,26.5 C 19.381625143214702,26.882176679281663 19.038040403950074,25.282792189549617 19.09968002535062,22.309016994374947 M 21.157894736842106,8.0 C 21.157894736842106,6.625 21.384868421052634,6.0625 21.662280701754387,6.75 C 21.93969298245614,7.4375 21.93969298245614,8.5625 21.662280701754387,9.25 C 21.384868421052634,9.9375 21.157894736842106,9.375 21.157894736842106,8.0 M 30.5,4.0 C 30.813613184092677,3.45 31.316476341281167,3.0 31.559016994374947,3.0 C 31.801557647468726,3.0 32.0,3.45 32.0,4.0 C 32.0,4.55 31.523442352531273,5.0 30.940983005625053,5.0 C 30.358523658718834,5.0 30.160081306187557,4.55 30.5,4.0 Z" /></svg>