<svg version="1.0" xmlns="http://www.w3.org/2000/svg" height="32" width="32"><path d=" M -1.7443730398663757e-18,16.063358484088134 L 0.0,0.0 L 3.0,0.0 L 6.0,0.0 L 6.166666666666667,14.0 C 6.258333333333334,21.7 6.370833333333334,28.7875 6.416666666666667,29.75 C 6.476924326153967,31.01541084923332 5.600048720004734,31.586771498108458 3.25,31.813358484088134 L -3.488746079732751e-18,32.12671696817627 L -1.7443730398663757e-18,16.063358484088134 M 17.0,31.0 C 17.0,30.45 17.648442352531273,30.0 18.440983005625053,30.0 C 19.233523658718834,30.0 20.160081306187557,30.45 20.5,31.0 C 20.839918693812443,31.55 20.206367011218724,32.0 19.059016994374947,32.0 C 17.926557647468726,32.0 17.0,31.55 17.0,31.0 M 28.47687307490711,31.0 C 28.839918693812443,30.45 29.766476341281166,30.0 30.559016994374947,30.0 C 31.351557647468727,30.0 32.0,30.45 32.0,31.0 C 32.0,31.55 31.073442352531274,32.0 29.940983005625053,32.0 C 28.808523658718833,32.0 28.160081306187557,31.55 28.5,31.0 M 14.0,25.712087014816053 C 12.389633559339739,24.901474037967752 11.383216852653975,23.439955370544062 11.197968274461843,21.605006486883894 C 10.780883999527942,18.211579609996353 11.949761886274832,16.730617086583948 13.937521021428322,18.0111282316074 C 15.252260656764138,18.784873363957907 15.28676710443344,19.282968679912795 14.21612284146677,21.01016455397102 C 12.798773126964157,23.29667620276385 13.368185215805678,25.0 15.52383323588695,25.0 C 17.87631291417795,25.0 18.968442887698743,21.572894511529697 18.17566531309585,16.873714266984145 C 17.445320776515434,12.683248867998554 17.27902962706055,12.513154643768736 14.206691420991016,12.813970032976531 L 11.0,13.127940065953064 L 11.015312774517062,7.813970032976532 C 11.036476792753044,0.4694513399033431 11.719500004100858,-0.3145686322540757 17.35987271453409,0.5312574913229788 C 20.716466488337133,1.0346098132124724 21.995764241358046,1.6797575472732134 21.984687225482936,2.8635437750628263 C 21.95939218170134,5.5667920864864975 20.68370812125126,6.5 17.013695043032165,6.5 C 14.488459543536202,6.5 13.434484023714875,6.982422384540497 13.19037087982164,8.25 C 12.931562384881524,9.593884436719767 13.530598480776899,10.0 15.771688274677388,10.000000000000002 C 21.843441960425235,10.000000000000005 25.160251759482165,19.00114545667594 21.022635486235483,24.25 C 18.59953572822735,27.3238708797103 17.6108847471684,27.52970439683142 14.0,25.712087014816053 M 26.556703968649053,24.777493756594573 C 24.160028895333955,21.355760773874977 24.431969451298755,8.443899436411472 26.989039626447315,4.25 C 28.078899554512034,2.4624999999999995 29.652217427315133,1.0 30.485301566009763,1.0 C 32.38798581960357,1.0 32.43669258600761,2.706164556849531 30.586817673048884,4.5560394698082565 C 28.471200570329103,6.6716565725280415 28.573473826650595,22.871212540365512 30.717403930158675,25.24022863877962 C 32.18943164041568,26.866800949697943 32.151153706810135,27.0 30.211691530761144,27.0 C 29.057635554356477,27.0 27.412891151406036,25.999872190467556 26.556703968649053,24.777493756594573 Z" /></svg>