<svg version="1.0" xmlns="http://www.w3.org/2000/svg" height="32" width="32"><path d=" M 16.5,30.0 C 16.126833856257075,29.396204495973222 17.391115669659868,29.02784733704689 19.690983005625053,29.088400234832708 C 22.73268516569387,29.164864847589005 23.097106111398674,29.31369996675696 21.5,30.0 C 18.75151566661704,31.18106422353915 17.229937833043696,31.078579892927255 16.52072018591039,30.0 M 9.89370081398267,28.052694397635456 C 9.83523626167314,27.748712478935957 9.72273626167314,26.6 9.611426745395837,25.5 C 9.537316060334852,24.001876963125554 8.905545514034674,23.567715101890048 7.210808891873249,23.81318050062673 L 4.921617783746499,24.111948398944 L 6.958976543838714,20.337725606833324 C 10.998208430167695,12.85999255068812 10.571774163509387,7.0 5.998875628117469,6.979878796895144 C 3.6761286309310086,6.982213979034891 1.1555213538512326,12.632068795415014 2.8153299423715263,14.25188832533124 C 3.7060463094784826,15.106046309478472 4.369319587113253,14.92845537653364 5.31542933944924,13.544762914898802 C 7.924224919744937,9.96629362076956 7.6827495094865315,13.556093259981285 4.877372256823221,19.48841136920081 C 3.3273152091259086,22.8 2.0637049656503086,25.22458426183593 2.0211990357621286,25.0 C 1.9786931058739485,24.725 1.8440345333277597,20.460495046237632 1.705618960707634,15.52332232497252 L 1.5122838950785225,6.546644649945041 L 4.9731444737255215,5.875856128415087 C 6.925,5.521743748595695 9.9351657458122,4.897965553195621 11.689257212916,4.499244494422001 L 14.878514425832002,3.774297114833601 L 13.310637767322978,9.1371485574168 C 10.956642880355547,17.384095935867684 10.491894100238929,21.432060704686585 12.030733103834402,20.481005897250558 C 13.021883479320156,19.86844127723814 13.17422525430593,20.538949720830622 12.669457912492742,23.38456913422452 C 12.103399766387197,27.13767370297113 12.179730980660498,27.18933642873419 14.797200811528787,26.383488703072207 C 16.283740365187953,25.90338848662329 19.1875,25.57102895896699 21.25,25.633198329225632 L 24.86542266609899,25.624055683464128 L 25.070285262610376,15.048723354463414 C 25.115757825321605,8.20680005143007 25.44397361215796,5.179534175149484 26.053612513422323,6.47801523415537 C 26.565954643877564,7.57166492861885 26.918220988043725,12.6625 26.931976901431927,17.75 L 27.0,27.0 L 24.25,27.08438279266703 C 22.7375,27.130793328633896 18.9125,27.492005807569853 15.75,27.887077190302485 C 12.5599028348183,28.309080578263327 9.952165366292201,28.356676316334955 9.89370081398267,28.052694397635456 M 16.942460838696864,22.010506112222792 C 17.0,19.789238217068483 19.191815739542694,18.075447218628074 19.7919838996441,19.86653921019365 C 20.073325744081394,20.719977232244187 20.63106925889627,20.540168460560707 21.53925002095637,19.27788066712817 C 22.857194596412523,17.57852154280586 22.938235556061443,17.65824892941863 22.96819662812954,19.76528829315613 C 22.997998757664774,21.801897855212832 20.450822379201703,24.0 18.065741454089334,23.973642158372417 C 17.4795836543402,23.967393725929295 17.0,23.126557647468726 17.0,22.053253480945198 M 17.581501966065808,14.880251594856153 C 16.05848770149203,5.121164971090045 16.165672000857214,4.149190499739812 19.276330755438366,3.421701027277163 C 22.64128074922377,2.7002405885617042 24.222196556959723,3.73652023694011 21.798760477472626,5.092743253510479 C 20.541075192841934,5.796579325382037 20.14310701367148,7.3053375346267355 20.228324237706367,11.046507129259638 C 20.355592626484082,17.14919702115625 18.338242662637096,19.994341959654868 17.60791740304642,14.937931683099565 Z" /></svg>