<svg version="1.0" xmlns="http://www.w3.org/2000/svg" height="32" width="32"><path d=" M 16.5,29.99341599376995 C 16.126833856257075,29.42888612321589 17.391115669659868,29.02784733704689 19.690983005625053,29.091902914463816 C 22.73268516569387,29.126411773838527 23.097106111398674,29.31369996675696 21.49259346259569,30.0 C 18.75151566661704,31.097473899962814 17.229937833043696,31.18106422353915 16.5,29.9969199484876 M 9.89370081398267,28.052694397635456 C 9.83523626167314,27.748712478935957 9.72273626167314,26.6 9.64370081398267,25.55563595867042 C 9.537316060334852,24.019357675167427 8.935062249235862,23.582966796673176 7.210808891873249,23.819497720511905 L 4.90643107724761,24.13899544102381 L 6.958976543838714,20.291895194979233 C 10.945105922213592,12.830194856303654 10.567648579684064,7.0 5.998875628117469,6.990120067950907 C 3.6761286309310086,7.0 1.2320687954149963,12.632068795415014 2.8518883253312413,14.25188832533124 C 3.7060463094784826,15.18252317763834 4.331829508718518,14.92845537653364 5.3436101394274385,13.526132902571614 C 7.896638218140983,9.943651950443895 7.6827495094865315,13.556093259981285 4.903728978528726,19.474227767624182 C 3.3608434398952776,22.772753218660835 2.0441766873574125,25.275 2.0374015618403303,24.974447261323526 C 1.9786931058739485,24.725 1.8440345333277597,20.460495046237632 1.682697014578553,15.52332232497252 L 1.487171764447828,6.546644649945041 L 4.990260703814086,5.836437519015587 C 6.925,5.521743748595695 9.9351657458122,4.897965553195621 11.68331260288379,4.499244494422001 L 14.821615098680832,3.774297114833601 L 13.315263290443253,9.148753008730987 C 10.956642880355547,17.384095935867684 10.491894100238929,21.432060704686585 12.006913071948036,20.481005897250558 C 13.05180055419852,19.927241297325626 13.17422525430593,20.538949720830622 12.703273326067487,23.441086267227597 C 12.103399766387197,27.13767370297113 12.13434464285768,27.208244458485943 14.734974348067857,26.383735059498953 C 16.283740365187953,25.92778749063535 19.1875,25.58271418548714 21.25,25.60409631512973 L 25.237251203309306,25.597446708926828 L 25.066547510843268,15.048723354463414 C 25.115757825321605,8.22399984281769 25.44397361215796,5.195461628662577 26.0,6.4717003631998935 C 26.472686211128583,7.6 26.905367050570977,12.6625 26.943119845329733,17.72230896926945 L 27.0,26.986466133816684 L 24.25,27.08438279266703 C 22.7375,27.130793328633896 18.9125,27.492005807569853 15.75,27.887077190302485 C 12.5875,28.28214857303512 9.97066403291201,28.356676316334955 9.89370081398267,28.030125926899878 M 17.0,22.059016994374947 C 17.0,19.789238217068483 19.191815739542694,18.075447218628074 19.803664836184844,19.875951698932305 C 20.073325744081394,20.719977232244187 20.63106925889627,20.45444754532923 21.569197522148592,19.303002682057148 C 22.857194596412523,17.604444003558555 22.960839996328588,17.628299462730745 22.96819662812954,19.714816241512004 C 22.997998757664774,21.790264115251034 20.46995521694336,23.98323772039041 18.027448789015484,23.991339807327737 C 17.507389344310614,24.0 17.0,23.115554035368437 17.0,22.059016994374947 M 17.590507485862187,14.888372116712583 C 16.070860516383735,5.106285708009812 16.206657026171975,4.162650954501197 19.247539856263245,3.4393075850087103 C 22.64128074922377,2.7002405885617042 24.222196556959723,3.73652023694011 21.798760477472626,5.0854605901502 C 20.510997220043997,5.796579325382037 20.14310701367148,7.3053375346267355 20.228324237706367,11.046507129259638 C 20.3603218790666,17.134353548773106 18.412160829433645,20.0005130259589 17.551560894182558,14.956253123202305 Z" /></svg>