<svg version="1.0" xmlns="http://www.w3.org/2000/svg" height="32" width="32"><path d=" M 0.0,16.0 L 0.0,0.0 L 3.8969414331101633,-3.552713678800501e-15 L 7.7938828662203266,-7.105427357601002e-15 L 7.779729711957388,8.324711540770277 C 7.847307546147647,12.7875 8.208146600983833,19.987499999999997 8.65187302696636,24.30193317185283 L 9.624209848559428,31.995597380762366 L 4.7973359477266735,32.0 L 0.0,32.0 L 0.0,16.0 M 14.094593332585193,27.41520705298011 C 12.549080580916497,25.35818959761478 12.27264683110779,24.370050570520633 13.135343660325852,22.880666663985018 C 14.071001775123026,21.028154593175664 14.443194163368762,18.283771949316414 14.791638840725017,13.737069918727544 C 15.057109191959062,11.145639877353519 17.98479668773589,11.627299122082169 17.969215499256865,14.25 C 18.007320975263934,20.503274989066593 21.31648606972629,23.477823646265012 22.548216276720016,18.471432077271913 C 22.978637568629942,17.172189519654694 23.62750879339666,16.014576643049143 24.14988259057149,16.028703764110826 C 24.591021619223692,16.050461429656433 24.746678368726307,17.075907487717714 24.43802496776999,18.39270386570704 C 24.097076874344584,19.652611010442815 24.293313821057232,21.063243922033575 24.868979606175444,21.39859245823924 C 26.200008051534148,22.437807537709865 27.08832222260043,20.362504372381043 25.985746022183715,17.46559287519081 C 25.330498376160556,15.553132132052141 25.252180851861386,14.347819148138612 26.000689094470577,13.67208164231206 C 27.43716331384427,12.147832565204565 27.814305517447334,12.893760145024661 29.18971910491207,20.809373970992596 C 30.67293496967146,29.870898982608928 29.731856791187486,31.358305538401535 24.488540023569527,28.561267510712156 C 21.232299215959312,26.88391204215145 20.88825970152952,26.91223910685316 19.21326728634389,28.34345580876456 C 16.766151317448035,30.424844333767155 16.49155454141924,30.406655711162088 14.056155905341706,27.393126536197776 Z" /></svg>