<svg version="1.0" xmlns="http://www.w3.org/2000/svg" height="32" width="32"><path d=" M 0.0,16.0 L 0.0,0.0 L 3.8969414331101633,-3.552713678800501e-15 L 7.7938828662203266,-7.105427357601002e-15 L 7.7947450074867985,8.337016055626558 C 7.819915602913232,12.7875 8.231443344087909,20.022718095404546 8.638055600260069,24.23246775109867 L 9.567873472774519,32.0 L 4.7973359477266735,32.0 L 0.0,32.0 L 0.005192368322368105,16.0 M 14.094593332585193,27.375545794065395 C 12.551447207696034,25.329834168120847 12.283157350627027,24.3590718278655 13.111070211117188,22.8524407505157 C 14.052515773806254,21.05241446319505 14.508949603586343,18.283771949316414 14.885979543603305,13.75 C 15.056005390285744,11.17289446113489 17.92728932204896,11.615049160936223 18.013654683292444,14.254589824009924 C 18.03109219896248,20.498812457922323 21.319311382821837,23.552677715074434 22.526047540347854,18.453459001051222 C 22.93993184024434,17.136591480090914 23.626605859002375,15.999999999999998 24.12746005808954,16.061199945306818 C 24.57212726912292,15.970859614352333 24.733880941010387,17.075907487717714 24.41928896815251,18.39090552826159 C 24.080935840693165,19.705903568805468 24.319309898856154,21.065149281764825 24.93452270582196,21.3947276560995 C 26.84389469397532,22.417200853581022 27.08832222260043,20.354376091749415 25.940101852896277,17.421076682369936 C 25.25980215590311,15.553132132052141 25.252180851861386,14.347819148138612 26.016590231246173,13.724402076008477 C 27.47639065408468,12.135635037733142 27.827781393417226,12.893760145024661 29.134544977368257,20.834888680053126 C 30.6059915246028,29.89462118211365 29.737095046307935,31.34955660514238 24.463483545607506,28.501927843910124 C 21.193596176216616,26.83333032108811 20.879969667653484,26.7986508336256 19.172979384236058,28.34345580876456 C 16.760922291470134,30.51262473608913 16.50909154320316,30.433710112045336 14.025678361657368,27.431708775121038 Z" /></svg>