<svg version="1.0" xmlns="http://www.w3.org/2000/svg" height="32" width="32"><path d=" M 22.82772835538988,28.097373799949775 C 19.70797895085431,27.762652734239584 16.92625573636644,27.259589069699754 16.646121212083493,26.979454545416814 C 16.365986687800547,26.699320021133875 16.93429545425105,25.412836470579432 17.909029581973503,24.120602210851384 C 19.415787300035678,22.12304832511731 20.19200380070381,21.884271751952173 23.09063672527989,22.526657227587403 C 26.344630519103305,23.247796607892017 26.397464334584217,23.328333664285356 24.25,24.293928899841227 C 20.70561075827178,25.88764354722832 21.606235314691283,27.0 26.440983005625053,27.0 C 28.883523658718833,27.0 31.160081306187557,27.45 31.5,28.0 C 32.15257201488125,29.055883700184864 31.798519658479492,29.05985906266621 22.82772835538988,28.097373799949775 M 4.541120802705009,25.933465143578616 C 4.9036559380052065,25.346870972546853 4.435224967737865,24.30751161083446 3.500163090999806,23.62377767310663 C 2.0600446509604047,22.57073735962753 1.9085550981490118,21.367425116454896 2.509566306821654,15.755266503012516 C 2.9549891657387963,11.595970140109655 3.7303575211687887,8.93371313080537 4.592682207962471,8.60280810028359 C 5.3481623081498455,8.312903184606613 5.700723890461079,7.3836738965385855 5.3761523908763245,6.537854126799086 C 4.628195270913141,4.58870911624933 7.949619612430693,4.564506904606484 21.0,6.4240078886701735 C 26.225,7.168499034000107 30.8375,7.576104171033745 31.25,7.329797082078258 C 31.6625,7.083489993122771 32.0,7.631668620601792 32.0,8.525982791796778 C 32.0,9.614473295122517 31.46280752858893,10.007837515349571 30.507157075372547,9.641120028035639 C 28.938508852829553,9.03917322550513 25.0,12.538069763610576 25.0,14.533573884520045 C 24.999999999999996,15.169621929710724 24.089367071233205,16.51413634995947 22.976371269407128,17.521383707295044 C 19.818442466450293,20.379269996006503 18.2600501785898,18.079100964465663 20.35836333927508,13.648936186604361 C 21.261263502673785,11.754513362747346 21.999999999999996,9.972271174259046 22.0,9.696696020101221 C 22.000000000000007,8.898331143649495 15.92763308096864,6.9999999999999964 13.373829714627652,6.999999999999998 C 10.517066909151263,7.0 7.551419311104884,11.17662285236939 8.32034423630023,14.116996283308602 C 8.624319286038002,15.27939865918463 8.365304200861324,17.043447207489628 7.744755158129839,18.037104168430822 C 6.916846263918351,19.362797029283943 6.908829570917452,20.796301508940527 7.71464149749647,23.42187659416195 C 8.768432136974702,26.855440130258707 8.71319346236896,27.0 6.347382417448864,27.0 C 4.855880237858118,27.02332199141048 4.142352138040167,26.57868639665474 4.541120802705009,25.933465143578616 M 30.67084297254619,24.584613827163942 C 30.37211892284383,23.80615143210411 30.46826313814213,21.89365143210411 30.977901424674897,20.334613827163942 C 31.76592567208828,17.70727603823724 31.834379652427604,17.810773606643146 31.91404725631304,21.75 C 32.002873023940055,26.14205889447468 31.611192319749197,27.035124945187338 30.66536029850677,24.584613827163942 M 11.0,20.57332416321053 C 11.0,19.64568901115719 11.854995729021176,19.0 13.083333333333334,19.0 C 15.520377895946394,19.0 15.175903075039725,21.33677304942051 12.66713370037172,21.82332416321053 C 11.680369572852467,22.014697348063784 11.0,21.50456311835206 11.0,20.57332416321053 M 12.574206247008753,13.332782557175577 C 11.76007285966553,11.211184958184631 13.3794438173612,9.547892641084493 15.475906596190192,10.352380892946579 C 16.754273603980835,11.36725434222294 16.863953199597976,11.385688680017452 16.00794028052662,12.985163450122156 C 14.696392400063395,15.435813081509727 13.43039629471217,15.56397805625136 12.574206247008753,13.332782557175577 M 23.5,4.0 L 18.5,3.314207436689016 L 25.25,3.157103718344508 C 29.188069145563006,3.06544663599403 32.0,3.4165823488054805 32.0,4.0 C 32.0,5.067648679387764 31.28404970034373,5.067648679387764 23.5,4.0 Z" /></svg>