<svg version="1.0" xmlns="http://www.w3.org/2000/svg" height="32" width="32"><path d=" M 0.0,30.5 C 0.0,29.518158978855777 0.9827791597653235,29.0 2.8450124378879105,29.0 C 4.420033167701095,29.0 6.497983874117744,28.107215356135633 7.499999999999999,27.0 C 9.643576321505225,24.63137482629874 10.793083131630821,24.507415217177982 12.921259328415935,26.415386510655573 C 13.789566697787171,27.19384909151614 16.08081288358996,28.123915372498402 18.012917519088802,28.48220046839394 C 20.95263307976783,29.027334646021725 21.913122991721192,28.72137878030631 23.899362582831778,26.60712362161999 L 26.27289012748595,24.080619327763245 L 29.136445063742975,27.14606491873616 C 30.711400278684337,28.832059993771264 31.999999999999996,30.613920645024532 32.0,31.105755254854536 C 32.0,31.597589864684544 24.8,32.0 16.0,32.0 C 2.444444444444443,32.0 0.0,31.770833333333332 0.0,30.5 M 1.421444699904737,23.655883992152003 C 0.46173475416678267,21.154919963088062 1.3989670487506376,17.5 3.0,17.5 C 4.0406504065040645,17.5 4.5,18.546296296296298 4.5,20.916666666666664 C 4.5,24.462380836325686 2.4357427965342815,26.299102462153307 1.421444699904737,23.655883992152003 M 16.666666666666664,24.333333333333336 C 16.3,23.73273992882994 16.0,22.391666666666666 16.0,20.833333333333336 C 16.0,18.51475127556585 16.433003074898135,18.0 18.38336863603901,18.0 C 21.05430954290196,18.0 22.29319118121032,20.72471208428971 20.81954775424361,23.35796679651341 C 19.876782514901695,25.042594816826142 17.851577892427237,25.5182445590939 16.666666666666664,24.333333333333336 M 8.157354702178475,14.542123543474245 C 6.111913979371015,11.075359705111321 3.732306217565439,10.006086655431298 2.5000000000000013,12.0 C 1.4485598621192404,13.701265880226948 0.0,13.103691165262516 0.0,10.96867445628001 C 0.0,9.269383500209498 0.571428023048024,8.975832551443926 3.4958898343453297,9.17278462193468 C 7.694095912828883,9.455518824963104 9.450083339732481,7.993447533941472 8.50157140756594,5.0049510668236765 C 7.910175771568303,3.1416284148768012 7.212744554882681,2.865005932481201 3.9022345095569104,3.1807138378863975 C 0.6907154902278929,3.4869814307586435 1.6191447110490344e-15,3.2384152700947917 8.881784197001252e-16,1.7764258730536904 C 7.426834059354548e-17,0.1485424536926736 1.337899484090066,0.0 16.0,0.0 C 29.701293435739373,0.0 32.0,0.22001276773454403 32.0,1.5313847963387053 C 32.0,2.3736464343249932 31.308356677427152,3.328178038325811 30.463014838727005,3.6525661385627446 C 28.44135603255763,4.428349412781082 26.0,9.240903088790308 26.0,12.450340073115797 C 26.0,13.85265303290211 25.51044597607567,15.0 24.91210216905704,15.0 C 24.200395861072536,15.0 24.05349929764362,13.642814847969568 24.487296071698637,11.075193902641598 C 25.03333627534205,7.843209831482597 24.768769269138676,6.768769269138676 22.9885356976917,4.988535697691697 C 20.632025047671004,2.632025047671002 17.505685117847534,2.837666859760799 13.184967017639377,5.63338676109688 C 11.240299537653208,6.891683518530906 10.986962569093116,7.640767466333912 11.601440922180004,10.315664226473706 C 13.381178931660337,18.06307373494737 11.556160728286969,20.302670741708575 8.157354702178475,14.542123543474245 M 17.666666666666664,11.333333333333332 C 17.3,10.966666666666667 17.0,9.616666666666667 17.0,8.333333333333332 C 17.0,5.461827664959989 19.613237574335404,5.206058999997753 20.4971598376112,7.991051440707155 C 21.43847570833548,10.95687512589352 19.536309826874902,13.20297649354157 17.666666666666664,11.333333333333332 Z" /></svg>