<svg version="1.0" xmlns="http://www.w3.org/2000/svg" height="32" width="32"><path d=" M 0.07894736842105271,28.75 C 0.12236842105263171,26.9625 0.4214056078324476,26.175 0.7094351805684382,26.983801437045614 C 1.0127824246179211,27.80451726849388 1.9470005117788873,29.258727507755573 2.7854753742594744,30.25 C 4.176608348557305,31.846905939195835 4.121451811729204,32.0 2.154987562112089,32.0 C 0.3741918780018243,32.0 0.031708822569044004,31.435670244744237 0.07894736842105271,28.75 M 30.5,30.0 C 30.162635384596058,29.45 30.358523658718834,29.0 30.934485284612386,29.0 C 31.523442352531273,29.0 32.0,29.43840807099096 32.0,29.978160087818246 C 31.974221118266716,30.534426339948553 31.801557647468726,31.028116863439777 31.559016994374947,31.05353995694781 C 31.28794333033634,31.0 30.839918693812443,30.55 30.48919887699379,30.0 M 4.457518351988165,24.17075975697781 C 3.1058832583946745,22.713082014993756 2.0061446074816,21.05385402756638 2.0116610550069707,20.553566826889146 C 2.052519358677299,17.634882026938175 3.422157536737074,15.095753052271782 5.572516940040535,13.963789290649736 C 6.887219896380404,13.257582442005807 8.239495016100557,11.820778524390105 8.572716150928288,10.741863994962534 C 9.446246923594977,7.957470312456282 14.953598700397047,5.00801313134276 19.303428804660648,5.003738060437554 C 23.12880425230685,4.99997315753723 29.999905231123012,9.18991615554828 29.99997050987339,11.590736699784848 C 29.988347311104686,12.878684148276315 25.302845769926446,17.353524450590758 22.262270717974136,18.940098177450253 C 21.02153573512125,19.54955093345271 20.0,20.719160984721995 20.0,21.494848933597268 C 19.994234396760252,23.59570500466171 16.156817544149344,25.685749178695225 11.209599361048967,26.302687862563058 C 7.487896634969223,26.752838633009116 6.587064703400447,26.448323162354395 4.457518351988165,24.17075975697781 M 10.315741454089334,22.83665718435538 C 15.400446466704242,20.12852766499413 16.49106143563687,16.020928917580186 12.046248871166418,16.008313276296345 C 8.97413874551519,16.0 6.0,19.00182487428336 6.0,22.222506243405427 C 5.951448719820215,24.301760490832876 7.273530086945394,24.466691062807342 10.315741454089334,22.85207129512062 M 22.00861462376918,14.307964498213936 C 25.156113971108585,12.166923807747535 25.958061156247147,11.006628816644941 25.330161035978456,9.418002577111286 C 24.41298588580215,7.027882448494253 21.693529365220215,6.952164057636859 18.415161155647972,9.223844199245693 C 14.633861150886668,11.805909259641629 14.199776384938476,13.436233907828269 16.16994228677998,14.980329523321325 C 19.075412532673937,16.274329661229007 19.170176645352115,16.26334155943589 22.027493756594573,14.307964498213936 M 27.299988966860504,22.39581768720235 C 26.701154812980743,20.7788386351715 28.458841434340872,19.043379970116078 30.74001756631147,19.015312774517064 C 32.33912104260622,19.005175566038893 32.35680606755454,21.299246902511566 30.8,22.799999999999997 C 29.17863042392184,24.43461281895589 28.064270316299023,24.29147907841529 27.322897928733163,22.370217944871115 M 0.03596291905004784,8.822128929083611 C 0.0886803892393758,3.9641545627357173 3.8522590463250737,-0.2388355891148105 7.756002691254128,0.1822216438335088 L 10.817658435626786,0.5 L 5.408829217813393,6.271809965502701 L 0.0,12.093251549930082 L 0.06062676012696497,8.79662577496504 M 28.5,1.0 C 28.160081306187557,0.44999999999999996 28.835081306187558,4.996003610813204e-17 30.0,1.1102230246251565e-16 C 31.164918693812442,1.7208456881689927e-16 31.839918693812443,0.4500000000000002 31.5,1.0198336145127123 C 31.160081306187557,1.55 30.46438698740278,2.0 30.0,2.0 C 29.51491869381244,1.9486917865449267 28.80880972061811,1.564388375631147 28.5,1.0 Z" /></svg>