<svg version="1.0" xmlns="http://www.w3.org/2000/svg" height="32" width="32"><path d=" M 0.09018412272200745,28.75 C 0.12236842105263171,26.9625 0.40608793651895525,26.175 0.7094351805684382,27.0 C 1.0127824246179211,27.825 1.9470005117788873,29.2875 2.7854753742594744,30.220495763116002 C 4.176608348557305,31.846905939195835 4.121451811729204,32.0 2.154987562112089,32.0 C 0.3741918780018243,32.0416772528313 0.013708415107427457,31.42259912401185 0.07894736842105271,28.75 M 30.5,29.97609634874071 C 30.160081306187557,29.45 30.348245363632504,29.039919296441123 30.940983005625053,29.0 C 31.523442352531273,29.0 32.0,29.45 32.0,30.0 C 32.0,30.50758767531091 31.830395355224983,31.0 31.559016994374947,31.0 C 31.316476341281167,31.0 30.839918693812443,30.564369166199903 30.5,29.97637980118419 M 4.438341610230788,24.197544664883953 C 3.095050672621925,22.713082014993756 2.0061446074816,21.06583835704391 2.0136546832924447,20.510218294867038 C 2.052519358677299,17.634882026938175 3.422157536737074,15.11202753903501 5.567660329327945,13.955979678134934 C 6.887219896380404,13.257582442005807 8.239495016100557,11.820778524390105 8.534113893388518,10.727789085610956 C 9.46566141013022,7.957470312456282 14.953598700397047,5.0576815277501685 19.280910088538644,5.003738060437554 C 23.134169472730477,4.99997315753723 29.999905231123012,9.210075291514567 30.047797118361807,11.562908795233998 C 30.00000701571653,12.878684148276315 25.322137495873196,17.353524450590758 22.25,18.92356525584972 C 21.0125,19.54955093345271 20.01110434175387,20.719160984721995 20.0,21.512130778633775 C 19.977776522441854,23.59570500466171 16.156817544149344,25.69623572027712 11.207518351988167,26.293760392847922 C 7.487896634969223,26.75070826133309 6.587064703400447,26.44643395781386 4.457518351988165,24.16207556573419 M 10.315741454089334,22.83665718435538 C 15.409406850898415,20.12852766499413 16.451780724260008,16.0 12.056703968649053,16.0 C 8.921839515794744,16.0 6.0,19.00182487428336 5.991321480469186,22.222506243405427 C 6.0,24.288064695812324 7.255237378031801,24.466691062807342 10.278724064297936,22.83665718435538 M 21.986081068317482,14.307964498213936 C 25.156113971108585,12.166923807747535 25.96101175590724,11.013734966233773 25.330161035978456,9.418002577111286 C 24.41298588580215,7.027882448494253 21.693529365220215,6.952164057636859 18.39792752028017,9.223844199245693 C 14.618149141782574,11.769278894507424 14.1804787279176,13.40881789667573 17.35932464692101,14.940577498215385 C 19.075412532673937,16.274329661229007 19.13207297160038,16.26542471109542 22.04142692259835,14.307964498213936 M 27.322897928733163,22.399075223028543 C 26.738125227544664,20.7788386351715 28.458841434340872,19.043379970116078 30.75,19.015312774517064 C 32.35424338305275,18.995845692752464 32.36865452384544,21.231345476154555 30.8,22.799999999999997 C 29.191360908512266,24.415607785767243 28.054870627225583,24.306565498935576 27.322897928733163,22.391622716383242 M 0.03596291905004784,8.822910305655986 C 0.0886803892393758,3.9641545627357173 3.8522590463250737,-0.2388355891148105 7.782771134461999,0.15881137272064896 L 10.817658435626786,0.4693535670389464 L 5.427519588838532,6.323395977210012 L 0.0,12.093251549930082 L 0.03596291905004784,8.79662577496504 M 28.5,1.0 C 28.160081306187557,0.44999999999999996 28.835081306187558,4.996003610813204e-17 30.0,1.1102230246251565e-16 C 31.164918693812442,1.7208456881689927e-16 31.839918693812443,0.4500000000000002 31.5,1.0 C 31.160081306187557,1.5647295426377157 30.48508130618756,2.0 30.0,2.029402058781459 C 29.560740062895263,2.041305917717672 28.815294999265937,1.55 28.5,1.0 Z" /></svg>