<svg version="1.0" xmlns="http://www.w3.org/2000/svg" height="32" width="32"><path d=" M 16.979484159879462,28.96804953361454 C 17.063741058737726,27.22714661356317 17.88346898352924,24.757379122224716 18.983734387882546,23.39724217112313 C 20.746947104893366,20.469816270826247 26.147774513178554,10.510664060383451 26.054450450155223,9.554141692892868 C 26.072628279419945,9.11388482411818 24.71015247472237,8.951595834636851 23.04659803860724,9.051841073291117 C 19.72162527778397,9.026555994218269 18.729962535255833,7.98969967177265 19.697712638378196,5.479834280658207 C 20.165012185773612,4.1940558164011685 21.117109567104745,3.997551007817312 23.560411605422285,4.25631366068831 C 26.828733015102195,4.822264694860167 28.72820274511109,2.91987165810916 27.454452273110405,0.9055736478069478 C 27.134983608274585,0.40939107173743117 28.05391453511407,2.7533531010703883e-15 29.486296064281138,1.7763568394002505e-15 C 31.953745512568034,9.336328094647591e-17 32.05376881042223,0.19709570497529771 31.453995062676313,3.75 C 30.546400464485036,8.400489151130317 29.654614621899935,10.638728422101625 24.785462407071307,19.111125498238902 C 22.81300495765599,22.55134176256398 20.877778475688135,26.979720542691062 20.49245049592257,28.650689578432363 C 19.557869012827954,32.89060111089352 17.008866138742135,33.06162810664243 17.028789718244884,28.817183757193177 M 28.465714014956873,30.987173338323903 C 28.141096591893124,30.526916644615845 28.051100477348697,30.0 28.338348821326647,29.996224476119842 C 28.6216717767658,30.0 29.548229424234524,29.72685503811705 30.398578990778415,29.361835321957606 C 31.45619613163219,28.9308797818464 32.01811666732712,29.338490245681207 31.848678736815184,30.383632003096437 C 31.981772735545352,32.085034641024926 29.466385713131913,32.56674819096408 28.543381358469748,31.0 M 27.064275692665564,21.790890893713794 C 27.077573452743273,20.152857006389983 28.146960952197098,17.220926696362735 29.494896057462608,15.19272094966185 L 32.097604231987106,11.44509617873416 L 31.75290519335918,15.743684086317451 C 31.47695339151996,19.09170892485549 30.509037680722816,20.865283741341504 29.19777050165403,22.206819374601892 L 26.993917491404037,24.490713186637098 L 27.058062434941007,21.66916839534238 M 10.168079972906988,18.5 C 10.172055831387993,16.810514420276895 10.464326753033895,16.275202229951113 10.701920467059084,17.228173577891106 C 11.033385416321947,18.24199942852401 10.884280554303004,19.593107522328616 10.627013584824873,20.229831504634845 C 10.382013637647082,20.943354844815314 10.148791898597967,20.16178195968005 10.153632024837787,18.483158722719825 Z" /></svg>