<svg version="1.0" xmlns="http://www.w3.org/2000/svg" height="32" width="32"><path d=" M 16.9874610126889,28.895961979567016 C 17.070099737212907,27.240558243287364 17.978891835856537,24.717427744579464 18.87981385538955,23.18568050489074 C 20.888538457419802,20.56539216507299 26.048824436129202,10.494752029393485 26.107191024805612,9.582526212999941 C 26.043180528690442,9.194871876262969 24.694695011089998,9.0 23.010671411812016,9.095397680707404 C 19.67698949216008,9.087464996314264 18.722550207974145,7.975129407415649 19.701921840091845,5.560908100701483 C 20.194417930932488,4.20670342610326 21.184057129767115,3.8914247724802133 23.54988109580889,4.272836585526894 C 26.709552156205735,4.830678497864946 28.803622382475414,3.0448659074550375 27.399489625303413,0.8345521898601352 C 27.134983608274585,0.40939107173743117 28.05391453511407,2.7533531010703883e-15 29.486296064281138,1.7763568394002505e-15 C 31.953745512568034,9.336328094647591e-17 32.05376881042223,0.19709570497529771 31.36683529668069,3.7666296609492367 C 30.611674441186125,8.353802504500742 29.576570668539,10.657708327086238 24.86284961021729,19.030770296260798 C 22.83803544891592,22.628955086807018 20.91815574823466,27.03017529405655 20.5001074117251,28.758095399708512 C 19.52418859744905,32.94642303105682 17.08985026598294,33.0417495405902 16.955387749210512,28.927051813682233 M 28.473116399469205,30.979006218339418 C 28.07858371127935,30.49586902552479 28.04719990383111,30.0 28.33714533766987,29.982669733644766 C 28.65104359735483,30.0 29.548229424234524,29.72685503811705 30.361126560262225,29.324739688735924 C 31.43766528471682,29.04195126700943 31.996102692889888,29.338490245681207 31.95664007976032,30.34385458097117 C 31.94130765996555,31.990251444351983 29.435511740098786,32.55424225023197 28.516858317019167,30.981411307337176 M 27.079028623792713,21.70470704620431 C 27.122172257595437,20.18516108568709 28.140817404200714,17.23026656833624 29.47393131060841,15.167975574886231 L 32.097604231987106,11.494375075470403 L 31.745052780418508,15.755927030095583 C 31.51303029235135,17.973021018243433 30.54118869947055,20.93815591376914 29.175561053230904,22.327094398973216 L 26.975738649680842,24.458304460383214 L 26.946199396758608,21.71394685796381 M 10.164212220420016,18.5 C 10.215328409026064,16.85 10.405540425148134,16.296064350216646 10.724976632769167,17.26903188937033 C 10.988134599984763,18.183709182845917 10.929859839614803,19.59199942852401 10.625926862817574,20.218035068083047 C 10.382013637647082,20.975392793736184 10.191316537828616,20.15 10.201048029005525,18.470320154298392 Z" /></svg>