<svg version="1.0" xmlns="http://www.w3.org/2000/svg" height="32" width="32"><path d=" M 13.632960030252645,30.218102304158034 C 16.229682496584584,28.137705392198054 17.51920779451974,25.613440927706428 18.321289762105167,21.0 C 19.290993196066584,15.704403163794103 25.2027390062152,5.018356025371928 27.19098300562505,5.0084364805194905 C 28.12102365871883,5.003796416233772 29.160081306187557,4.591615774667706 29.537344797907103,4.000000000000002 C 31.395927464606284,0.9536164304016745 32.0330201527454,4.277403405926837 32.0,17.46248309431001 L 32.0,31.924966188620022 L 21.75,31.90990281196052 C 11.961822889081306,31.877361727307687 11.590893601158385,31.822505876009608 13.632960030252645,30.179241612754033 M 29.68311403508772,9.8125 C 29.36388766765761,9.014767303102627 29.12693129003894,9.251723680721295 29.078947368421055,10.416666666666668 C 29.035526315789475,11.400319366159689 29.271875,12.061458333333334 29.604166666666664,11.716153641819975 C 29.93645833333333,11.454522355016174 29.971984649122806,10.534375 29.85827536575161,9.8125 M 0.625,16.985400337161064 C 0.69375,15.35 0.80625,13.088862118821334 0.875,11.975249152936296 C 0.956310186031577,10.825682000186024 2.0436201077145912,9.553714648129677 3.414431062687367,9.006631898615515 C 4.72973444209613,8.52765247233968 6.145957784211296,7.115488245549368 6.505227809395216,5.894390525779697 C 7.181823929015835,3.8140864607656013 7.317628468729847,3.8161862442461265 8.178807020182667,5.483311147582062 C 9.948402751438849,8.517119081845555 8.35368084979479,14.268632509468802 4.906552283007919,17.241757988580968 C 0.9075419155335989,20.717196904556488 0.47114794076554634,20.692449421626886 0.6503738055957189,17.0 M 10.049830321506809,17.39308293562907 C 9.987250732027949,13.02092617143806 13.977284974335523,9.029755378753528 17.145304133079673,9.000000000000004 L 20.071773589494367,8.925375221615134 L 16.95164931851334,13.57040626658847 C 15.222211697278881,16.093537766806843 13.602824341525519,17.94747611190237 13.252485519835437,17.585818853168767 C 12.994306731240535,17.28071638513038 12.105070681160079,17.789591044347965 11.322129762195404,18.738316400803708 C 10.164596976545955,20.305474097373068 10.040337799967386,20.17507984583275 10.021845323529059,17.36909685774202 Z" /></svg>