<svg version="1.0" xmlns="http://www.w3.org/2000/svg" height="32" width="32"><path d=" M 13.649230387954374,30.17920398360676 C 16.229682496584584,28.13093565179776 17.586868755311276,25.624994326748748 18.390796198040903,21.0 C 19.290993196066584,15.72161627533978 25.19316111953644,5.018356025371928 27.19098300562505,5.033775740487072 C 28.12102365871883,5.003796416233772 29.160081306187557,4.5500000000000025 29.5,4.000000000000002 C 31.382768588780998,0.9536164304016745 32.0,4.277403405926837 32.0,17.46248309431001 L 32.0,31.90994700291627 L 21.75,31.90990281196052 C 11.936791781683358,31.895481343508756 11.590893601158385,31.848543151956257 13.632960030252645,30.19741971765051 M 29.664248781678367,9.8125 C 29.36388766765761,9.014767303102627 29.12693129003894,9.251723680721295 29.078947368421055,10.416666666666668 C 29.035526315789475,11.470833333333333 29.271875,11.975368931372328 29.55441559766645,11.729166666666668 C 29.9312324054032,11.396875 29.971984649122806,10.534375 29.692018537783497,9.8125 M 0.625,16.97301970549164 C 0.69375,15.35 0.80625,13.088862118821334 0.875,11.975249152936296 C 0.9459696673554536,10.891002972205754 2.048368551540359,9.553714648129677 3.414431062687367,9.032533251980391 C 4.742368147165418,8.52765247233968 6.145957784211296,7.115488245549368 6.544427453948266,5.894390525779697 C 7.181823929015835,3.8517630258947344 7.317628468729847,3.8161862442461265 8.24908625574489,5.449520350827583 C 9.948402751438849,8.57651481569261 8.32559689413231,14.240515990706095 4.935115332783875,17.241757988580968 C 0.9075419155335989,20.771354344080166 0.47114794076554634,20.704174355061156 0.625,17.0 M 10.03180337187046,17.384858691801284 C 9.987250732027949,13.02092617143806 12.914912510842957,9.020716498915348 17.13374759807343,9.000000000000004 L 20.09608135712145,9.0074866655304 L 16.95164931851334,13.534392174018837 C 15.222211697278881,16.083926725259893 13.557587987873825,17.91722373061031 13.252485519835437,17.585818853168767 C 12.947383051797049,17.294450278383227 12.105070681160079,17.8115924971517 11.38068025175328,18.765543546549484 C 10.216043549783198,20.319090114221048 10.06028954061309,20.17507984583275 10.004125135593755,17.384858691801284 Z" /></svg>